<?xml version="1.0" encoding="UTF-8"?>
<!DOCTYPE svg PUBLIC "-//W3C//DTD SVG 1.1//EN" "http://www.w3.org/Graphics/SVG/1.1/DTD/svg11.dtd">
<!-- Creator: CorelDRAW 2017 -->
<svg xmlns="http://www.w3.org/2000/svg" xml:space="preserve" width="18.5208mm" height="18.5208mm" version="1.1" style="shape-rendering:geometricPrecision; text-rendering:geometricPrecision; image-rendering:optimizeQuality; fill-rule:evenodd; clip-rule:evenodd"
viewBox="0 0 1852.08 1852.08"
 xmlns:xlink="http://www.w3.org/1999/xlink">
 <defs>
  <style type="text/css">
    .fil3 {fill:#00CCFF}
    .fil2 {fill:gray}
    .fil1 {fill:fuchsia}
    .fil4 {fill:#FF99CC}
    .fil0 {fill:#FFD014}
  </style>
 </defs>
 <g id="Layer_x0020_1">
  <metadata id="CorelCorpID_0Corel-Layer"/>
  <circle class="fil0" cx="926.04" cy="926.04" r="767.29"/>
  <path class="fil1" d="M1233.29 1457.06l-0.04 -433.6c-17.6,-4.51 -44.5,3.78 -58.24,-5.94 -53.32,-4.03 -99.36,-53.64 -98.69,-111.17 0.66,-56.65 45.45,-104.56 98.69,-108.52 13.74,-9.72 40.64,-1.43 58.28,-5.94l-0.65 -425.58 -422.76 0c-6.66,3.87 -179.99,3.86 -186.62,0 -45.8,0 -76.71,-6.45 -96.84,22.4 -11,15.77 -6.35,90.2 -6.35,113.95l0 890.24c-0.07,26.77 -1.97,34.45 12.54,48.95 21.31,21.29 61.55,15.21 102.42,15.21 199.42,0 398.84,0 598.26,0z"/>
  <path class="fil2" d="M1175.01 797.83c-53.24,3.96 -98.03,51.87 -98.69,108.52 -0.67,57.53 45.37,107.14 98.69,111.17 26.47,1.54 159.03,-4.29 170.1,3.78 29.88,0 56.87,3.42 57.41,-26.51l-0.03 -171.52c0,-16.6 -3.09,-22.49 -16.02,-26.75 -10.46,-3.45 -27.05,-2.46 -41.36,-2.46 -11.07,8.07 -143.63,2.24 -170.1,3.77z"/>
  <path class="fil3" d="M1233.29 1457.06c132.96,0 112.86,-2.37 112.86,-160.4 0,-43.56 2.66,-251.05 -1.04,-275.36 -11.07,-8.07 -143.63,-2.24 -170.1,-3.78 13.74,9.72 40.64,1.43 58.24,5.94l0.04 433.6z"/>
  <path class="fil3" d="M1175.01 797.83c26.47,-1.53 159.03,4.3 170.1,-3.77 3.59,-23.6 1.04,-228.11 1.04,-270.02 0,-156.31 19.45,-157.73 -113.51,-157.73l0.65 425.58c-17.64,4.51 -44.54,-3.78 -58.28,5.94z"/>
  <path class="fil3" d="M660.37 1040.87l279.43 0c4.18,-84.48 -58.29,-162.83 -139.02,-162.82 -80.73,0.01 -143.2,78.33 -140.41,162.82z"/>
  <path class="fil4" d="M623.26 366.31c6.63,3.86 179.96,3.87 186.62,0 4.77,-20.58 1.59,-84.24 1.59,-109.61l-10.69 -8.02c-16.04,8.49 -27.17,19.21 -41.62,30.57 -7.77,6.1 -13.14,10.55 -20.71,16.72 -26.68,21.73 -14.71,22.37 -64.48,-16.72 -14.45,-11.36 -25.57,-22.08 -41.62,-30.57l-10.69 8.02c0,25.37 -3.17,89.03 1.6,109.61z"/>
  <path class="fil3" d="M788.6 713.95c-96.15,20.74 -64.76,157.93 28.09,138.91 32.91,-6.75 62.48,-41.24 53.51,-85.11 -6.58,-32.17 -41.92,-62.36 -81.6,-53.8z"/>
  <path class="fil1" d="M1146.33 873.99c-46.96,12.39 -26.44,79.88 18.77,67.67 39.08,-10.55 28.69,-80.21 -18.77,-67.67z"/>
 </g>
</svg>
