<?xml version="1.0" encoding="UTF-8"?>
<!DOCTYPE svg PUBLIC "-//W3C//DTD SVG 1.1//EN" "http://www.w3.org/Graphics/SVG/1.1/DTD/svg11.dtd">
<!-- Creator: CorelDRAW 2017 -->
<svg xmlns="http://www.w3.org/2000/svg" xml:space="preserve" width="18.5208mm" height="18.5208mm" version="1.1" style="shape-rendering:geometricPrecision; text-rendering:geometricPrecision; image-rendering:optimizeQuality; fill-rule:evenodd; clip-rule:evenodd"
viewBox="0 0 1852.08 1852.08"
 xmlns:xlink="http://www.w3.org/1999/xlink">
 <defs>
  <style type="text/css">
   <![CDATA[
    .str0 {stroke:#FFD014;stroke-width:20;stroke-miterlimit:22.9256}
    .fil3 {fill:#0F8BFA}
    .fil1 {fill:#1A9FFE}
    .fil4 {fill:#29B2FE}
    .fil2 {fill:#39C6FC}
    .fil0 {fill:#FFD014}
   ]]>
  </style>
 </defs>
 <g id="Layer_x0020_1">
  <metadata id="CorelCorpID_0Corel-Layer"/>
  <g id="_2219746277040">
   <circle class="fil0 str0" cx="926.04" cy="926.04" r="767.29"/>
   <path class="fil1" d="M776.72 851.16c2.71,16.62 12.14,25.05 26.46,42.24 13.35,16.03 20.27,18.38 35.67,33.36 -16.7,25.63 -66.79,46.03 -107.75,164.88 -31.13,90.3 -24.37,34.26 -34.28,59.25l0.37 50.38c28.99,10.24 432.88,10.52 450.19,-0.35 15.09,-11.67 7.84,-49.04 7.39,-50.02 -8.67,-18.71 -7.9,19.92 -33.29,-55.65 -16.58,-49.33 -70.6,-153.52 -106.07,-159.06 -8.64,-10.95 -12.54,15.85 -7.15,-17.24 -15.71,8.75 6.6,4 -16.22,8.36 -9.56,1.82 -19.91,0.55 -29.65,0.39 0.09,-13.97 0.18,-7.6 2.75,-17.09 3.09,-11.37 3.18,-1.85 3.22,-5.24l-50.62 -16.62c-4.44,-1.52 -5.01,-2.19 -10.49,-3.72 -11.59,-3.24 -5.26,-2.98 -21.47,-3.29 2.32,-20.41 -8.01,-21.2 18.28,-18.24 -41.65,-0.99 -34.02,-9 -36.93,-14.4l-35.98 -4.88 -20.63 4.55c-11.85,0.94 -7.51,-4.83 -31.04,-4.98l-2.76 7.37z"/>
   <path class="fil2" d="M1019.71 516.99c112.04,39.08 147.3,57.23 215.58,128.66 50.73,53.07 101.55,143.92 106.75,242.8l-73.21 1.47 -0.31 71.73 348.94 1.62 0.77 -71.51 -200.62 -2.91c-14.44,-123.02 -62.13,-226.46 -127.35,-293.38 -51.18,-52.52 -162.95,-144.19 -269.69,-150.84l-0.86 72.36z"/>
   <path class="fil3" d="M233.84 961.17l200.38 2.23c6.75,22.5 8.75,64.17 15.81,89.93 20.93,76.47 60.98,150.39 112.01,204.15 50.1,52.79 164.78,143.93 268.75,150.64l1.18 -71.79c-91.09,-36.48 -139.9,-45.09 -218.52,-130.25 -29.97,-32.47 -118.87,-172.08 -101.5,-243.56l70.07 -0.62 -0.37 -71.84 -347.69 -0.32 -0.12 71.43z"/>
   <path class="fil4" d="M776.72 851.16l2.76 -7.37c23.53,0.15 19.19,5.92 31.04,4.98l20.63 -4.55c-15.26,-39.85 -46.65,-74.01 -49.2,-126.29l287.8 0.04c-1.28,27.55 -32.73,105.09 -48.28,119.86 -22.55,21.4 -117.53,13.79 -154.34,11.27 2.91,5.4 -4.72,13.41 36.93,14.4 -26.29,-2.96 -15.96,-2.17 -18.28,18.24 16.21,0.31 9.88,0.05 21.47,3.29 5.48,1.53 6.05,2.2 10.49,3.72l50.62 16.62c-0.04,3.39 -0.13,-6.13 -3.22,5.24 -2.57,9.49 -2.66,3.12 -2.75,17.09 9.74,0.16 20.09,1.43 29.65,-0.39 22.82,-4.36 0.51,0.39 16.22,-8.36 -5.39,33.09 -1.49,6.29 7.15,17.24 -0.67,-18.18 5.88,-16.31 19.26,-28.39 65.52,-59.23 80.61,-145.4 95.99,-177.67 8.65,-18.16 10.03,-10.7 23.92,-23.09 1.86,-23.15 4.98,-37.2 -6.99,-49.58 -14.97,-9.05 -428.19,-9.43 -443.85,-0.28 -11.78,12.71 -8.79,26.88 -6.81,50 16.26,14.61 15.89,3.1 25.14,26.56 10.17,25.76 20.62,70.52 39.95,101.17l14.7 16.25z"/>
   <path class="fil3" d="M1269.16 1169.08c-9.32,7.9 -15.56,18.69 -24.36,29.39 -61.45,74.66 -177.82,140 -280.96,144.29l-1.64 -46.02 -72.52 -1.08 -0.93 320.84 73.65 1.43 0.52 -200.19c149.76,-15.05 266.39,-81.33 354.52,-194.12 9.7,-12.41 9.78,-12.02 12.43,-22.94l1.85 -17.99c-7.73,-4.87 -8.36,-6.86 -16.75,-11.33 -4.71,-2.52 -4.34,-2.04 -9.75,-4.49 -0.73,-0.33 -2.87,0.02 -3.41,-1.45 -0.54,-1.48 -2.37,-0.81 -3.45,-1.44 -15.02,6.32 -2.8,7.87 -18.55,13.9 -3.1,-11.52 2.14,-6.63 -10.65,-8.8z"/>
   <path class="fil2" d="M528.27 641.1c22.07,-5.21 9.56,-4.06 31.5,7.74 12.75,6.86 18.66,9.82 30.43,5.37 3.89,6.69 2.85,0.23 2.75,13.34l28.62 -26.1c29.89,-32.3 54.55,-53.12 93.81,-76.38 47.74,-28.29 106.67,-52.57 173.05,-55.03l0.93 46.21 72.57 0.96 0.67 -322.51 -71.73 -0.55 -2.28 200.72c-84.08,9.75 -149.71,29.51 -212.48,67.06 -45.26,27.07 -128.87,91.78 -147.84,139.17z"/>
   <path class="fil0" d="M831.15 844.22l35.98 4.88c36.81,2.52 131.79,10.13 154.34,-11.27 15.55,-14.77 47,-92.31 48.28,-119.86l-287.8 -0.04c2.55,52.28 33.94,86.44 49.2,126.29z"/>
   <path class="fil3" d="M775.84 1508.34l-0.01 -52.18c-99.36,-45.88 -144.63,-47 -237.54,-141.89 -53.58,-54.71 -118.59,-137.8 -140.58,-237.99l-54.07 -0.13c31.93,190.51 256.11,409.15 432.2,432.19z"/>
   <path class="fil2" d="M1075.53 398.07c157.17,36.85 292.17,169.9 353.87,308.55 10.53,23.66 14.82,44.9 25.83,68.11l52.24 2.28c-3.93,-42.98 -41.51,-119.79 -60.98,-153.62 -28.27,-49.12 -59.58,-86.97 -95.05,-122.26 -51.82,-51.55 -171.75,-142.64 -275.9,-156.68l-0.01 53.62z"/>
   <path class="fil3" d="M1338.2 1293.89c-24.64,11.91 -60.42,73.81 -182.85,131.69 -25.96,12.26 -52.14,18.41 -78.12,30.59l-1.98 52.16c56.75,-7.37 147.3,-55.67 185.36,-81.43 27.76,-18.79 53.05,-38.77 73.9,-58.37l56.62 -61.38c5.11,-7.96 3.56,-4.72 5.27,-10.97 -13.18,-15.17 -8.7,-12.7 -27.75,-6.2l-12.18 3.52c-7.88,1.33 -11.62,0.63 -18.27,0.39z"/>
   <path class="fil2" d="M470.72 536.52c19.07,0.88 14,6.14 43.85,7.35l3 11.04c26.12,-13.34 105.7,-119.23 258.38,-156.63l0.15 -53.5c-76.36,9.97 -186.67,76.53 -244.54,126.28l-45.41 44.17c-11.92,12.59 -8.19,5.73 -15.43,21.29z"/>
   <path class="fil4" d="M592.95 667.55c0.1,-13.11 1.14,-6.65 -2.75,-13.34 -11.77,4.45 -17.68,1.49 -30.43,-5.37 -21.94,-11.8 -9.43,-12.95 -31.5,-7.74 -29.63,17.22 -81.15,141.61 -84.45,190.62 105.99,1.47 56.8,12.66 103.79,-84.67l45.34 -79.5z"/>
   <path class="fil4" d="M517.57 554.91l-3 -11.04c-29.85,-1.21 -24.78,-6.47 -43.85,-7.35 -20.14,10.62 -65.57,86.89 -75.52,105.26 -17.31,31.95 -46.28,94.2 -51.32,135.28l53.5 0.01c10.52,-40.73 28.18,-82.25 50.07,-120.68 33.31,-58.46 53.71,-73.51 66.41,-93.7 5.35,-8.5 1.54,0.04 3.71,-7.78z"/>
   <path class="fil1" d="M1338.2 1293.89c6.65,0.24 10.39,0.94 18.27,-0.39l12.18 -3.52c19.05,-6.5 14.57,-8.97 27.75,6.2 39.41,-26.11 102.43,-169.49 111.15,-219.46l-52.34 0.3c-19.7,43.83 -15.38,55.34 -49.62,116.83 -22.28,40.01 -60.89,84.24 -67.39,100.04z"/>
   <path class="fil4" d="M1269.16 1169.08c12.79,2.17 7.55,-2.72 10.65,8.8 15.75,-6.03 3.53,-7.58 18.55,-13.9 1.08,0.63 2.91,-0.04 3.45,1.44 0.54,1.47 2.68,1.12 3.41,1.45 5.41,2.45 5.04,1.97 9.75,4.49 8.39,4.47 9.02,6.46 16.75,11.33l-1.85 17.99c13,-8.74 6.32,-2.88 15.08,-15.73l33.76 -64.81c11.39,-26.35 26.71,-68.52 29,-98.8l-72.49 -1.2c-41.55,125.2 -35.95,80.1 -66.06,148.94z"/>
   <path class="fil0" d="M1049.93 1078.32c-7.66,-49.3 -68.09,-116.65 -94.67,-135.68 -10.94,68.38 35.37,125.54 94.67,135.68z"/>
   <path class="fil0" d="M802.08 1077.82c55.29,-10.53 103.37,-63.94 92.84,-134.27 -20.94,19.91 -32.87,27.32 -52.84,55.49 -11.94,16.84 -36.13,54.18 -40,78.78z"/>
  </g>
 </g>
</svg>
