<?xml version="1.0" encoding="UTF-8"?>
<!DOCTYPE svg PUBLIC "-//W3C//DTD SVG 1.1//EN" "http://www.w3.org/Graphics/SVG/1.1/DTD/svg11.dtd">
<!-- Creator: CorelDRAW 2017 -->
<svg xmlns="http://www.w3.org/2000/svg" xml:space="preserve" width="18.5208mm" height="18.5208mm" version="1.1" style="shape-rendering:geometricPrecision; text-rendering:geometricPrecision; image-rendering:optimizeQuality; fill-rule:evenodd; clip-rule:evenodd"
viewBox="0 0 1852.08 1852.08"
 xmlns:xlink="http://www.w3.org/1999/xlink">
 <defs>
  <style type="text/css">
   <![CDATA[
    .str1 {stroke:black;stroke-width:20;stroke-miterlimit:22.9256}
    .str2 {stroke:white;stroke-width:20;stroke-miterlimit:22.9256}
    .str0 {stroke:#CCCCCC;stroke-width:7.62;stroke-miterlimit:22.9256}
    .fil27 {fill:none}
    .fil3 {fill:black}
    .fil16 {fill:#009933}
    .fil24 {fill:#04537D}
    .fil18 {fill:#0B678B}
    .fil28 {fill:#1497D4}
    .fil20 {fill:#167EA9}
    .fil17 {fill:#1899CA}
    .fil2 {fill:#1CC7EA}
    .fil26 {fill:#20BCD4}
    .fil12 {fill:#3FC3F4}
    .fil7 {fill:#666666}
    .fil21 {fill:#669336}
    .fil23 {fill:#9CB482}
    .fil6 {fill:#9E9E9E}
    .fil22 {fill:#B9CDA3}
    .fil11 {fill:#C4C4C4}
    .fil10 {fill:#D0D1D3}
    .fil15 {fill:#D5D6D8}
    .fil14 {fill:#E8E8EA}
    .fil5 {fill:#EBEBEB}
    .fil19 {fill:#F1F2F2}
    .fil25 {fill:#F7F7F7}
    .fil1 {fill:fuchsia}
    .fil9 {fill:#FF6600}
    .fil4 {fill:#FFAA01}
    .fil0 {fill:#FFD014}
    .fil29 {fill:#FFD118}
    .fil13 {fill:white}
    .fil8 {fill:white}
   ]]>
  </style>
    <clipPath id="id0">
     <path d="M-10220.3 3143.38c387.91,0 702.36,314.45 702.36,702.36 0,387.91 -314.45,702.36 -702.36,702.36 -387.91,0 -702.36,-314.45 -702.36,-702.36 0,-387.91 314.45,-702.36 702.36,-702.36z"/>
    </clipPath>
 </defs>
 <g id="Layer_x0020_1">
  <metadata id="CorelCorpID_0Corel-Layer"/>
  <g id="_2074398785376">
   <circle class="fil0" cx="-7990.05" cy="3843.93" r="767.29"/>
   <path class="fil1" d="M-7984.03 4246.27l39.72 -0.11 0.86 61 -39.76 0.59 -0.82 -61.48zm39.82 -41.87l-40.48 -0.46c-14.4,-162.63 -155.57,-84.34 -241.85,-272.2 -70.76,-154.09 14.54,-302.1 107.78,-359.84 8.98,6.99 18.33,21.81 21.79,34.31 -125.38,73.49 -167.05,287.5 -17.55,403.13 27.48,21.26 47.25,26.93 78.71,43.21 45.45,23.51 95.76,81.09 91.6,151.85zm-389.44 -390.21c0.71,50.57 10.34,103.72 29.36,143.98 11.6,26.41 23.6,48.48 39.05,70.45 17.33,24.62 34.86,38.91 50.49,58.75 10.32,5.81 18.87,15.55 30.51,23.82 10.25,7.29 20.9,14.03 31.59,22.86 19.16,15.81 36.52,35.86 42.36,71.08 5.54,19.85 1.77,74.31 2.58,100.49 0.48,15.4 3.79,27.39 11.7,38.1 9.4,12.75 19.5,14.84 26.04,21.81 36.08,7.15 166.04,7.28 205.34,2.2 54.06,-29.82 44.6,-41.59 44.7,-126.44 0.08,-62.41 22.39,-92.17 58.54,-117.19 36.6,-25.33 64.63,-49.49 90.21,-83.1 16.65,-21.87 55.17,-81.86 59.31,-117.07 -24.68,-19.41 -54.55,-3.53 -62.16,21.14 -7.73,25.05 -4.08,62.54 -14.98,84.27l-119.45 -16.06c0.83,-40.53 28.9,-106.4 -13.62,-123.45 -42.75,-17.15 -77.86,45.58 -107.46,50.27 -11.36,-12.68 -66.23,-85.16 -70.54,-96.46 10.79,-11.4 30.95,-24.47 45.09,-35.04 14.91,-11.14 34.45,-21.13 33.14,-48.36 -2.65,-55.3 -78.46,-34.43 -113.26,-51.3 0.52,-18.52 11.73,-108.16 18.98,-119.52 39.76,1.16 104.04,28.35 120.47,-13.66 13.73,-35.15 -25.18,-64.2 -50.86,-104.15 5.79,-10.13 15.88,-15.3 23.71,-22.7 -3.51,-2.26 3.86,-0.33 -7.24,-2.86 -18.51,-4.24 -67.92,-0.95 -85.8,1.31 -176.95,22.38 -318.24,181.67 -317.8,366.83z"/>
   <path class="fil2" d="M-7700.06 3552.62c62.22,-0.26 110.01,40.31 129.12,83.16 23.38,52.41 11.2,125.17 -24.65,155.76 -22.6,31.24 -79.01,56.57 -134.76,45.42 -49.8,-9.97 -84.91,-44.42 -102.03,-80.82 -47.8,-101.62 33.31,-205.7 132.32,-203.52zm-222.75 -103.71c-7.83,7.4 -17.92,12.57 -23.71,22.7 25.68,39.95 64.59,69 50.86,104.15 -16.43,42.01 -80.71,14.82 -120.47,13.66 -7.25,11.36 -18.46,101 -18.98,119.52 34.8,16.87 110.61,-4 113.26,51.3 1.31,27.23 -18.23,37.22 -33.14,48.36 -14.14,10.57 -34.3,23.64 -45.09,35.04 4.31,11.3 59.18,83.78 70.54,96.46 29.6,-4.69 64.71,-67.42 107.46,-50.27 42.52,17.05 14.45,82.92 13.62,123.45l119.45 16.06c10.9,-21.73 7.25,-59.22 14.98,-84.27 7.61,-24.67 37.48,-40.55 62.16,-21.14 17.54,10.54 39.07,51.82 57.57,70.17 10.33,-3.38 84.23,-59.28 96.48,-70.29 -5.08,-30.24 -67.3,-64.55 -50.24,-107.35 17.14,-42.99 82.12,-14.5 123.56,-14.16l15.33 -121.11c-44.34,-6.8 -109.99,-3.05 -112.62,-49.21 -2.12,-37.23 54.51,-60.8 78,-83.4 -3.77,-12.29 -26.47,-39.09 -35.52,-50.93 -9.5,-12.42 -23.46,-37.86 -38.02,-46.31 -17.58,10.82 -30.08,22.04 -46.84,34.39 -13.4,9.88 -31.68,26.24 -57.17,16.31 -45.97,-17.9 -9.81,-83.19 -15.35,-123.44l-116.58 -14.2c-0.47,-0.83 -1.79,0.43 -2.61,0.83 -14.56,42.14 2.06,107.85 -50.11,110.66 -35.86,1.94 -49.72,-41.22 -83.37,-78.3 -20.62,7.68 -50.87,39.12 -73.45,51.32z"/>
   <path class="fil3" d="M-8110.29 4205.13c-5.84,-35.22 -23.2,-55.27 -42.36,-71.08 -10.69,-8.83 -21.34,-15.57 -31.59,-22.86 -11.64,-8.27 -20.19,-18.01 -30.51,-23.82 -22.15,83.12 -130.79,102.78 -181.84,33.88 -51.9,-70.04 0.34,-165.26 92.3,-163.08 -19.02,-40.26 -28.65,-93.41 -29.36,-143.98l-25.65 1.4c-10.05,24.95 -5.04,79.23 -32.55,81.84 -15.52,1.48 -54.5,-32.38 -70.08,-40.45 -8.03,4.32 -54.58,49.27 -60.42,60.42 8.21,17.3 43.28,56.1 39.94,72.64 -3.83,19.02 -54.84,24.94 -82.76,29.78l0.75 80.39c21.82,11.3 78.1,5.47 82.33,32.86 2.9,18.75 -34.33,52.7 -40.38,73.12l60.54 58.37c24.08,-11.71 46.8,-42.13 77.68,-39.42 18.03,9.23 15.43,75.59 27.66,80.17l4.52 1.78c0.83,0.2 1.7,0.39 2.62,0.54l71.46 -0.92c6.34,-26.82 8.73,-65.74 24.31,-81.16 28.53,-3.92 53.71,26.12 77.19,38.78 22.87,-10.09 41.58,-46.39 66.2,-59.2z"/>
   <path class="fil1" d="M-7595.59 3791.54c3.32,-39.89 -19.26,-106.18 -33.48,-136.02 -9.45,-19.83 -20.48,-37.98 -32.16,-54.55 -13.57,-19.25 -26.68,-30.92 -38.83,-48.35 -99.01,-2.18 -180.12,101.9 -132.32,203.52 17.12,36.4 52.23,70.85 102.03,80.82 55.75,11.15 112.16,-14.18 134.76,-45.42z"/>
   <path class="fil4" d="M-7944.21 4204.4c4.16,-70.76 -46.15,-128.34 -91.6,-151.85 -31.46,-16.28 -51.23,-21.95 -78.71,-43.21 -149.5,-115.63 -107.83,-329.64 17.55,-403.13 -3.46,-12.5 -12.81,-27.32 -21.79,-34.31 -93.24,57.74 -178.54,205.75 -107.78,359.84 86.28,187.86 227.45,109.57 241.85,272.2l40.48 0.46z"/>
   <path class="fil5" d="M-7862.21 4452.05l-204.54 -1.38c-1.7,93.6 55.78,80.13 108.34,80.13 33.13,0.01 56.43,5.02 75.19,-12.32 28.87,-26.69 14.96,-30.29 21.01,-66.43z"/>
   <path class="fil6" d="M-8066.75 4450.67l204.54 1.38 3.21 -39.83c-28.96,-3.76 -183.04,-4.59 -209.29,0.28l1.54 38.17z"/>
   <path class="fil5" d="M-8068.29 4412.5c26.25,-4.87 180.33,-4.04 209.29,-0.28 -5.28,-11.08 -4.2,-27.68 -5.63,-44.49 -39.3,5.08 -169.26,4.95 -205.34,-2.2 4.86,15.64 3.54,30.94 1.68,46.97z"/>
   <path class="fil1" d="M-8509.56 3458.33c-39.27,19.74 16.76,50.15 41.41,67.59 13.26,9.38 25.59,18.14 39.43,27.91 10.88,7.68 28.06,26.08 45.57,19.39 9.4,-3.59 22.63,-21.77 -4.83,-40.84l-78.76 -55.92c-10.73,-7.65 -28.26,-25.45 -42.82,-18.13z"/>
   <path class="fil1" d="M-8338.65 3344.14c-17.5,11.21 -11.49,21.05 -5.89,41.89 13.68,50.87 21.45,133.95 55.45,117.39 22.72,-11.07 -1.03,-70.53 -6.61,-92.73 -5.57,-22.2 -12.1,-86.31 -42.95,-66.55z"/>
   <path class="fil1" d="M-8428.52 3657.79c-30.99,8.06 -64.15,15.47 -96.47,23.26 -16.41,3.96 -32.81,6.47 -34.99,22.26 -2.85,20.69 16.04,24.78 35.35,20.3 32.73,-7.6 63.21,-16.26 95.35,-24.08 17.04,-4.15 32.37,-5.65 33.65,-23.1 1.51,-20.48 -15.45,-23.17 -32.89,-18.64z"/>
   <path class="fil1" d="M-7494.81 4333.13c19.04,7.2 33.91,-8.59 27.52,-24.74 -4.65,-11.73 -54.47,-49.55 -66.04,-59.16 -7.25,-6.01 -27.37,-24.66 -33.59,-27.7 -18.65,-9.11 -37.22,4.99 -28.89,26.21l101 85.39z"/>
   <path class="fil1" d="M-7571.76 4129.07c6,21.67 54.93,13.96 78.39,13.96 24.93,0.01 70.64,7.21 63.1,-25.58 -5.28,-22.98 -54.01,-15.1 -79.13,-15.11 -24.2,-0.01 -71.59,-6.59 -62.36,26.73z"/>
   <path class="fil1" d="M-7695.18 4395.26c4.44,17.82 40.13,31.07 39.85,-22.38 -0.09,-18.78 2.25,-75.35 -1.06,-89.72 -4.79,-20.72 -40.18,-31.24 -39.95,22.23 0.08,17.85 -2.13,76.7 1.16,89.87z"/>
   <polygon class="fil4" points="-7983.21,4307.75 -7943.45,4307.16 -7944.31,4246.16 -7984.03,4246.27 "/>
  </g>
  <g id="_2074424891536">
   <circle class="fil0" cx="5733.21" cy="4271.24" r="767.29"/>
   <path class="fil1" d="M5739.23 4673.58l39.72 -0.11 0.86 61 -39.76 0.59 -0.82 -61.48zm39.82 -41.87l-40.48 -0.46c-14.4,-162.63 -155.57,-84.34 -241.85,-272.2 -70.76,-154.09 14.54,-302.1 107.78,-359.84 8.98,6.99 18.33,21.81 21.79,34.31 -125.38,73.49 -167.05,287.5 -17.55,403.13 27.48,21.26 47.25,26.93 78.71,43.21 45.45,23.51 95.76,81.09 91.6,151.85zm-389.44 -390.21c0.71,50.57 10.34,103.72 29.36,143.98 11.6,26.41 23.6,48.48 39.05,70.45 17.33,24.62 34.86,38.91 50.49,58.75 10.32,5.81 18.87,15.55 30.51,23.82 10.25,7.29 20.9,14.03 31.59,22.86 19.16,15.81 36.52,35.86 42.36,71.08 5.54,19.85 1.77,74.31 2.58,100.49 0.48,15.4 3.79,27.39 11.7,38.1 9.4,12.75 19.5,14.84 26.04,21.81 36.08,7.15 166.04,7.28 205.34,2.2 54.06,-29.82 44.6,-41.59 44.7,-126.44 0.08,-62.41 22.39,-92.17 58.54,-117.19 36.6,-25.33 64.63,-49.49 90.21,-83.1 16.65,-21.87 55.17,-81.86 59.31,-117.07 -24.68,-19.41 -54.55,-3.53 -62.16,21.14 -7.73,25.05 -4.08,62.54 -14.98,84.27l-119.45 -16.06c0.83,-40.53 28.9,-106.4 -13.62,-123.45 -42.75,-17.15 -77.86,45.58 -107.46,50.27 -11.36,-12.68 -66.23,-85.16 -70.54,-96.46 10.79,-11.4 30.95,-24.47 45.09,-35.04 14.91,-11.14 34.45,-21.13 33.14,-48.36 -2.65,-55.3 -78.46,-34.43 -113.26,-51.3 0.52,-18.52 11.73,-108.16 18.98,-119.52 39.76,1.16 104.04,28.35 120.47,-13.66 13.73,-35.15 -25.18,-64.2 -50.86,-104.15 5.79,-10.13 15.88,-15.3 23.71,-22.7 -3.51,-2.26 3.86,-0.33 -7.24,-2.86 -18.51,-4.24 -67.92,-0.95 -85.8,1.31 -176.95,22.38 -318.24,181.67 -317.8,366.83z"/>
   <path class="fil2" d="M6023.2 3979.93c62.22,-0.26 110.01,40.31 129.12,83.16 23.38,52.41 11.2,125.17 -24.65,155.76 -22.6,31.24 -79.01,56.57 -134.76,45.42 -49.8,-9.97 -84.91,-44.42 -102.03,-80.82 -47.8,-101.62 33.31,-205.7 132.32,-203.52zm-222.75 -103.71c-7.83,7.4 -17.92,12.57 -23.71,22.7 25.68,39.95 64.59,69 50.86,104.15 -16.43,42.01 -80.71,14.82 -120.47,13.66 -7.25,11.36 -18.46,101 -18.98,119.52 34.8,16.87 110.61,-4 113.26,51.3 1.31,27.23 -18.23,37.22 -33.14,48.36 -14.14,10.57 -34.3,23.64 -45.09,35.04 4.31,11.3 59.18,83.78 70.54,96.46 29.6,-4.69 64.71,-67.42 107.46,-50.27 42.52,17.05 14.45,82.92 13.62,123.45l119.45 16.06c10.9,-21.73 7.25,-59.22 14.98,-84.27 7.61,-24.67 37.48,-40.55 62.16,-21.14 17.54,10.54 39.07,51.82 57.57,70.17 10.33,-3.38 84.23,-59.28 96.48,-70.29 -5.08,-30.24 -67.3,-64.55 -50.24,-107.35 17.14,-42.99 82.12,-14.5 123.56,-14.16l15.33 -121.11c-44.34,-6.8 -109.99,-3.05 -112.62,-49.21 -2.12,-37.23 54.51,-60.8 78,-83.4 -3.77,-12.29 -26.47,-39.09 -35.52,-50.93 -9.5,-12.42 -23.46,-37.86 -38.02,-46.31 -17.58,10.82 -30.08,22.04 -46.84,34.39 -13.4,9.88 -31.68,26.24 -57.17,16.31 -45.97,-17.9 -9.81,-83.19 -15.35,-123.44l-116.58 -14.2c-0.47,-0.83 -1.79,0.43 -2.61,0.83 -14.56,42.14 2.06,107.85 -50.11,110.66 -35.86,1.94 -49.72,-41.22 -83.37,-78.3 -20.62,7.68 -50.87,39.12 -73.45,51.32z"/>
   <path class="fil3" d="M5612.97 4632.44c-5.84,-35.22 -23.2,-55.27 -42.36,-71.08 -10.69,-8.83 -21.34,-15.57 -31.59,-22.86 -11.64,-8.27 -20.19,-18.01 -30.51,-23.82 -22.15,83.12 -130.79,102.78 -181.84,33.88 -51.9,-70.04 0.34,-165.26 92.3,-163.08 -19.02,-40.26 -28.65,-93.41 -29.36,-143.98l-25.65 1.4c-10.05,24.95 -5.04,79.23 -32.55,81.85 -15.52,1.47 -54.5,-32.39 -70.08,-40.46 -8.03,4.32 -54.58,49.27 -60.42,60.42 8.21,17.3 43.28,56.1 39.94,72.64 -3.83,19.02 -54.84,24.94 -82.76,29.78l0.75 80.39c21.82,11.3 78.1,5.47 82.33,32.86 2.9,18.75 -34.33,52.7 -40.38,73.12l60.54 58.37c24.08,-11.71 46.8,-42.13 77.68,-39.42 18.03,9.23 15.43,75.59 27.66,80.17l4.52 1.78c0.83,0.2 1.7,0.39 2.62,0.54l71.46 -0.92c6.34,-26.82 8.73,-65.74 24.31,-81.16 28.53,-3.92 53.71,26.12 77.19,38.78 22.87,-10.09 41.58,-46.39 66.2,-59.2z"/>
   <path class="fil1" d="M6127.67 4218.85c3.32,-39.89 -19.26,-106.18 -33.48,-136.02 -9.45,-19.83 -20.48,-37.98 -32.16,-54.55 -13.57,-19.25 -26.68,-30.92 -38.83,-48.35 -99.01,-2.18 -180.12,101.9 -132.32,203.52 17.12,36.4 52.23,70.85 102.03,80.82 55.75,11.15 112.16,-14.18 134.76,-45.42z"/>
   <path class="fil4" d="M5779.05 4631.71c4.16,-70.76 -46.15,-128.34 -91.6,-151.85 -31.46,-16.28 -51.23,-21.95 -78.71,-43.21 -149.5,-115.63 -107.83,-329.64 17.55,-403.13 -3.46,-12.5 -12.81,-27.32 -21.79,-34.31 -93.24,57.74 -178.54,205.75 -107.78,359.84 86.28,187.86 227.45,109.57 241.85,272.2l40.48 0.46z"/>
   <path class="fil5" d="M5861.05 4879.36l-204.54 -1.38c-1.7,93.6 55.78,80.13 108.34,80.13 33.13,0.01 56.43,5.02 75.19,-12.32 28.87,-26.69 14.96,-30.29 21.01,-66.43z"/>
   <path class="fil6" d="M5656.51 4877.98l204.54 1.38 3.21 -39.83c-28.96,-3.76 -183.04,-4.59 -209.29,0.28l1.54 38.17z"/>
   <path class="fil5" d="M5654.97 4839.81c26.25,-4.87 180.33,-4.04 209.29,-0.28 -5.28,-11.08 -4.2,-27.68 -5.63,-44.49 -39.3,5.08 -169.26,4.95 -205.34,-2.2 4.86,15.64 3.54,30.94 1.68,46.97z"/>
   <path class="fil1" d="M5213.7 3885.64c-39.27,19.74 16.76,50.15 41.41,67.59 13.26,9.38 25.59,18.14 39.43,27.91 10.88,7.68 28.06,26.08 45.57,19.39 9.4,-3.59 22.63,-21.77 -4.83,-40.84l-78.76 -55.92c-10.73,-7.65 -28.26,-25.45 -42.82,-18.13z"/>
   <path class="fil1" d="M5384.61 3771.45c-17.5,11.21 -11.49,21.05 -5.89,41.89 13.68,50.87 21.45,133.95 55.45,117.39 22.72,-11.07 -1.03,-70.53 -6.61,-92.73 -5.57,-22.2 -12.1,-86.31 -42.95,-66.55z"/>
   <path class="fil1" d="M5294.74 4085.1c-30.99,8.06 -64.15,15.47 -96.47,23.26 -16.41,3.96 -32.81,6.47 -34.99,22.26 -2.85,20.69 16.04,24.78 35.35,20.3 32.73,-7.6 63.21,-16.26 95.35,-24.08 17.04,-4.15 32.37,-5.65 33.65,-23.1 1.51,-20.48 -15.45,-23.17 -32.89,-18.64z"/>
   <path class="fil1" d="M6228.45 4760.44c19.04,7.2 33.91,-8.59 27.52,-24.74 -4.65,-11.73 -54.47,-49.55 -66.04,-59.16 -7.25,-6.01 -27.37,-24.66 -33.59,-27.7 -18.65,-9.11 -37.22,4.99 -28.89,26.21l101 85.39z"/>
   <path class="fil1" d="M6151.5 4556.38c6,21.67 54.93,13.96 78.39,13.96 24.93,0.01 70.64,7.21 63.1,-25.58 -5.28,-22.98 -54.01,-15.1 -79.13,-15.11 -24.2,-0.01 -71.59,-6.59 -62.36,26.73z"/>
   <path class="fil1" d="M6028.08 4822.57c4.44,17.82 40.13,31.07 39.85,-22.38 -0.09,-18.78 2.25,-75.35 -1.06,-89.72 -4.79,-20.72 -40.18,-31.24 -39.95,22.23 0.08,17.85 -2.13,76.7 1.16,89.87z"/>
   <polygon class="fil4" points="5740.05,4735.06 5779.81,4734.47 5778.95,4673.47 5739.23,4673.58 "/>
  </g>
  <g id="_2074424876400">
   <circle class="fil0" cx="1760.41" cy="4125.87" r="767.29"/>
   <path class="fil7" d="M1888.48 3731.46c21.71,7.04 42.63,15.83 62.6,26.19l75.83 -44.54 84.64 -49.72 56.5 56.49 56.49 56.49 -49.72 84.64 -44.97 76.54c10.24,20.04 18.89,41.02 25.8,62.78l85.07 22.11 95.01 24.69 0 79.9 0 79.89 -95.01 24.69 -85.88 22.32c-7.05,21.71 -15.84,42.64 -26.21,62.62l44.54 75.81 49.72 84.64 -56.49 56.5 -56.49 56.49 -84.64 -49.72 -76.56 -44.98c-20.04,10.23 -41.01,18.9 -62.76,25.8l-22.11 85.08 -24.69 95.01 -79.9 0 -79.89 0 -24.69 -95.01 -22.32 -85.88c-21.71,-7.05 -42.64,-15.84 -62.62,-26.21l-75.81 44.54 -84.64 49.72 -56.5 -56.49 -56.49 -56.49 49.72 -84.64 44.98 -76.56c-10.23,-20.04 -18.9,-41.01 -25.8,-62.76l-85.08 -22.11 -95.01 -24.69 0 -79.9 0 -79.89 95.01 -24.69 85.88 -22.32c7.05,-21.71 15.84,-42.64 26.21,-62.62l-44.54 -75.81 -49.72 -84.64 56.49 -56.5 56.49 -56.49 84.64 49.72 76.56 44.98c20.04,-10.23 41.01,-18.9 62.76,-25.8l22.11 -85.08 24.69 -95.01 79.9 0 79.89 0 24.69 95.01 22.32 85.9zm-128.07 209.25c102.26,0 185.16,82.9 185.16,185.16 0,102.25 -82.9,185.15 -185.16,185.15 -102.25,0 -185.15,-82.9 -185.15,-185.15 0,-102.26 82.9,-185.16 185.15,-185.16z"/>
  </g>
  <g id="_2038416554640">
   <path class="fil8 str0" d="M-7652.76 240.93l122.97 0 9.71 0 56.44 57.56 0 11.82 0 173.12c0,12.14 -10.15,22.08 -22.56,22.08l-166.56 0c-12.41,0 -22.55,-9.94 -22.55,-22.08l0 -220.43c0,-12.14 10.14,-22.07 22.55,-22.07z"/>
   <path class="fil9" d="M-7647.36 257.46l117.57 0 0 34.24c0,10.23 8.56,18.61 19.02,18.61l33.9 0 0 171.88c0,5.7 -4.77,10.37 -10.6,10.37l-159.89 0c-5.82,0 -10.59,-4.67 -10.59,-10.37l0 -214.36c0,-5.7 4.77,-10.37 10.59,-10.37z"/>
   <g>
    <rect class="fil8" transform="matrix(0.024958 0.0324079 -0.0331182 0.0244227 -7596.64 396.787)" width="859.89" height="906.2"/>
    <rect class="fil8" transform="matrix(0.024958 0.0324079 -0.0421835 0.0311078 -7520.52 340.649)" width="859.89" height="906.2"/>
    <path class="fil8" d="M-7501.5 330.66l17.5 22.72c1.09,1.42 0.8,3.45 -0.65,4.51l-8.16 6.02 -21.46 -27.86 8.16 -6.02c1.44,-1.07 3.52,-0.78 4.61,0.63z"/>
    <polygon class="fil8" points="-7629.28,420.86 -7607.82,448.72 -7642.93,452.86 "/>
    <path class="fil8" d="M-7501.78 449.94l-27.71 20.43c-2.11,1.56 -5.14,1.14 -6.73,-0.92l-93.27 -121.12c-1.59,-2.06 -1.16,-5.02 0.94,-6.58l27.71 -20.43 20.06 26.04 -8.1 5.98 3.96 5.15 8.11 -5.98 3.79 4.93 -8.1 5.98 3.96 5.14 8.1 -5.98 3.8 4.93 -8.1 5.98 3.96 5.15 8.1 -5.98 3.8 4.93 -8.1 5.98 3.96 5.14 8.1 -5.98 3.8 4.93 -8.11 5.98 3.97 5.15 8.1 -5.98 3.8 4.93 -8.11 5.98 3.97 5.14 8.1 -5.98 3.8 4.93 -8.11 5.98 3.97 5.15 8.1 -5.98 3.8 4.93 -8.11 5.98 3.96 5.14 8.11 -5.98 3.8 4.94 -8.11 5.97 3.96 5.15 8.11 -5.98 3.8 4.93 -8.11 5.98 3.96 5.14 8.11 -5.97 5.2 6.75zm-103.21 -111.94c1.91,2.48 1.4,6.02 -1.14,7.89 -2.54,1.87 -6.15,1.38 -8.06,-1.11 -1.92,-2.49 -1.41,-6.02 1.13,-7.89 2.54,-1.88 6.15,-1.38 8.07,1.11z"/>
   </g>
  </g>
  <g id="_2038416579312">
   <circle class="fil0" cx="-4090.86" cy="3837.33" r="767.3"/>
   <g>
    <g>
     <path class="fil10" d="M-3992.2 3931.52l-0.02 0c-29.81,-38.45 -60.74,-74.62 -92.48,-107.59 -25.58,-13.18 -73.89,-14.1 -133.81,-6.14l-192.09 -96.53 -76.16 -388.98c198.12,-58.25 547.3,-132.25 607.49,-114.97 58.25,35.58 277.27,312 393.89,481.54l-506.82 232.67z"/>
     <path class="fil11" d="M-4240.27 3820.99l-209.83 -342.26 45.6 -111.59 498.45 -102.62 332.27 416.22 -97.34 239.95 -305.87 30.78c-34.47,-45.91 -70.53,-88.93 -107.71,-127.54 -28.61,-14.74 -85.65,-14.15 -155.57,-2.94z"/>
    </g>
    <g>
     <path class="fil12" d="M-4336.38 3543.1l0.18 -0.62c34.37,-171.04 150.64,-282.59 346.93,-285.66 188.63,17.4 279.31,118.73 288.82,265.26 1.02,117.31 -42.57,205.06 -163.08,244.43l4.41 24.47 -208.28 51.34c-5.74,-6.23 -11.51,-12.37 -17.3,-18.39 -13.76,-7.09 -34.13,-10.61 -59.3,-11.14l-192.38 -269.69z"/>
     <path class="fil13" d="M-3915.49 3575.14l24.67 -104.92c-110.54,-52.56 -211.42,-19.89 -249.88,67.7 -55.57,151.77 81.87,202.53 156.82,110.26 10.16,68.07 118.76,70.15 165.94,7.35 42.55,-60.04 44.49,-118.26 33.05,-175.87 -16.74,-57.36 -53.13,-98.3 -107.49,-124.3 -86.56,-30.77 -161.01,-25.7 -227.44,3.16 -58.11,31.79 -104.48,76.53 -129.32,145.05 -16.49,54.21 -19.17,104.34 -8.14,150.42l0.02 0.03 80.98 113.52c35.96,28.15 90.37,41.04 159.78,41.54 40.78,-1.03 72.46,-7.61 97.06,-18.52l-12.06 -43.32c-81.51,28.51 -182.76,18.19 -237.8,-43.99 -29.98,-41.1 -39.08,-84.16 -34.63,-128.49 9.7,-74.88 35.81,-121.87 72.85,-150.32 52.44,-41.92 118.43,-55.2 201.23,-32.95 65.24,24.61 89.37,70.6 95.49,141.77 -0.07,98.21 -65.18,137.16 -84.38,114.04 -8.68,-11.8 -4.22,-40.09 3.25,-72.16zm-72.2 6.02c9.24,-26.61 11.01,-53.64 14.36,-74.92 -36.44,-5.56 -67.16,3.99 -87.8,37.48 -17.05,33.55 -21.27,62.48 -4.56,83.85 25.53,17.46 62.6,2.3 78,-46.41z"/>
    </g>
    <g>
     <path class="fil14" d="M-4733.7 4006.85l246.94 -674.57 342.76 480.51c-145.61,-3.05 -453.33,94.98 -589.7,194.06z"/>
     <path class="fil14" d="M-3736.51 4371.89l251.13 -673.04 -582.02 143.47c134.01,145.38 252.33,345.9 330.89,529.57z"/>
    </g>
    <path class="fil15" d="M-4084.7 3823.93c-93.35,-48.08 -489.06,66.72 -649,182.92l997.19 365.04c-81.93,-191.54 -207.09,-401.41 -348.19,-547.96z"/>
   </g>
  </g>
  <circle class="fil0" cx="-6099.82" cy="3766.6" r="767.3"/>
  <path class="fil8" d="M-6450.42 3197.49l517.68 0 40.87 0 237.58 247.63 0 50.85 0 744.79c0,52.22 -42.72,94.95 -94.95,94.95l-701.18 0c-52.22,0 -94.95,-42.73 -94.95,-94.95l0 -948.32c0,-52.22 42.73,-94.95 94.95,-94.95z"/>
  <path class="fil1" d="M-6427.67 3268.63l494.93 0 0 147.27c0,44.04 36.02,80.07 80.06,80.07l142.7 0 0 739.45c0,24.53 -20.07,44.6 -44.6,44.6l-673.09 0c-24.53,0 -44.6,-20.07 -44.6,-44.6l0 -922.2c0,-24.53 20.07,-44.59 44.6,-44.59z"/>
  <g id="_2038416569328">
   <rect class="fil8" x="-6371.32" y="3572.54" width="553.45" height="97.46"/>
   <rect class="fil8" x="-6371.32" y="3777.91" width="553.45" height="97.46"/>
   <rect class="fil8" x="-6371.32" y="3983.28" width="553.45" height="97.46"/>
  </g>
  <g id="_2038416568240">
   <circle class="fil0" cx="-2159.61" cy="3923.48" r="767.3"/>
   <path class="fil8" d="M-2501.22 3368.96l504.41 0 39.81 0 231.5 241.28 0 49.54 0 725.7c0,50.89 -41.63,92.52 -92.51,92.52l-683.21 0c-50.89,0 -92.52,-41.63 -92.52,-92.52l0 -924c0,-50.89 41.63,-92.52 92.52,-92.52z"/>
   <path class="fil9" d="M-2479.06 3438.27l482.25 0 0 143.51c0,42.9 35.1,78 78,78l139.05 0 0 720.5c0,23.9 -19.56,43.45 -43.46,43.45l-655.84 0c-23.9,0 -43.45,-19.55 -43.45,-43.45l0 -898.55c0,-23.9 19.55,-43.46 43.45,-43.46z"/>
   <g>
    <rect class="fil8" transform="matrix(0.102373 0.135844 -0.135844 0.102373 -2271.03 4022.28)" width="859.89" height="906.2"/>
    <rect class="fil8" transform="matrix(0.102373 0.135844 -0.173028 0.130395 -1958.78 3786.97)" width="859.89" height="906.2"/>
    <path class="fil8" d="M-1880.79 3745.1l71.78 95.25c4.47,5.93 3.27,14.44 -2.66,18.91l-33.47 25.22 -88.03 -116.81 33.47 -25.22c5.93,-4.47 14.44,-3.28 18.91,2.65z"/>
    <polygon class="fil8" points="-2404.91,4123.18 -2316.89,4239.99 -2460.91,4257.32 "/>
    <path class="fil8" d="M-1881.94 4245.07l-113.67 85.66c-8.65,6.52 -21.06,4.78 -27.58,-3.87l-382.59 -507.69c-6.52,-8.65 -4.77,-21.06 3.88,-27.57l113.66 -85.66 82.28 109.17 -33.25 25.06 16.25 21.56 33.25 -25.05 15.57 20.67 -33.24 25.05 16.25 21.57 33.25 -25.06 15.57 20.67 -33.24 25.05 16.25 21.57 33.24 -25.06 15.58 20.67 -33.25 25.06 16.25 21.56 33.25 -25.05 15.57 20.66 -33.24 25.06 16.25 21.56 33.25 -25.05 15.57 20.67 -33.25 25.05 16.26 21.57 33.24 -25.06 15.58 20.67 -33.25 25.05 16.25 21.57 33.25 -25.06 15.57 20.67 -33.24 25.06 16.25 21.56 33.25 -25.05 15.57 20.66 -33.25 25.06 16.26 21.56 33.24 -25.05 15.58 20.67 -33.25 25.05 16.25 21.57 33.25 -25.06 21.33 28.3zm-423.35 -469.22c7.85,10.42 5.77,25.24 -4.65,33.09 -10.42,7.85 -25.24,5.77 -33.09,-4.65 -7.85,-10.42 -5.77,-25.24 4.65,-33.09 10.42,-7.86 25.24,-5.77 33.09,4.65z"/>
   </g>
  </g>
  <g id="_2038416564016">
   <circle class="fil0" cx="-178.46" cy="4029.88" r="767.3"/>
   <g>
    <circle class="fil16" cx="177.72" cy="3665.64" r="87.72"/>
    <path class="fil16" d="M-204.17 3618.57c24.26,-8.16 48.06,-6.86 71.61,0.66l187.2 94.14c32.43,15.84 54.28,36.98 65.32,63.52l39.58 139.07c8.38,22.24 24.78,34.46 50.28,35.3l162.59 -23.54c28.8,-0.26 37.35,50.36 -4.27,65.26l-218.39 46.44c-28.9,3.11 -45.28,-14.51 -51.35,-49.2l-23.37 -106.35c-8.11,-32.34 -25.05,-41.13 -50.28,-27.82l-145.48 83.44c-34.31,19.69 -43.78,50.2 -22.46,94.14l71.67 189.34c11.66,27.99 3.31,41.18 -23.54,40.65l-355.14 2.14c-15.5,-4.1 -24.8,-13.73 -26.75,-29.95l1.06 -29.74c0.66,-19.04 12.9,-30.47 27.47,-32.83l196.12 -0.55c36.69,-3.05 40.78,-22.7 26.12,-51.43 -28.72,-56.02 -54.72,-112.64 -77.02,-170.08 -11.04,-26.81 -1.37,-50.94 17.73,-66.25l179.66 -110.19c22.17,-17.39 24.2,-32.18 2.14,-43.86l-53.43 -31.01c-18.12,-11.1 -43.56,-16.36 -86.65,-7.48l-130.17 30.6c-57.03,10.41 -54.76,-49.46 -18.18,-63.12l187.93 -41.3z"/>
    <path class="fil16" d="M-467.44 4434.6c-7.3,-15.74 -1.97,-30.26 12.84,-43.86l122.07 -90.22 149.49 -0.26 -201.91 164.47c-21.4,19.75 -39.48,22.85 -53.75,6.95l-28.74 -37.08z"/>
    <path class="fil16" d="M-722.9 3797.91l429.49 0c7.21,0 30.76,5.9 30.76,13.11l0 0c0,7.21 -23.56,13.1 -30.76,13.1l-429.49 0c-7.21,0 -30.76,-5.89 -30.76,-13.1l0 0c0,-7.21 23.55,-13.11 30.76,-13.11z"/>
    <path class="fil16" d="M-664.72 3854.61l297.62 0c5.67,0 44.01,5.9 44.01,13.1l0 0c0,7.21 -38.35,13.11 -44.01,13.11l-297.62 0c-5.67,0 -45.08,-5.9 -45.08,-13.11l0 0c0,-7.2 39.41,-13.1 45.08,-13.1z"/>
    <path class="fil16" d="M-635.34 3909.17l251.16 0c4.91,0 41.83,5.89 41.83,13.1l0 0c0,7.21 -36.92,13.1 -41.83,13.1l-251.16 0c-4.91,0 -41.83,-5.89 -41.83,-13.1l0 0c0,-7.21 36.91,-13.1 41.83,-13.1z"/>
   </g>
  </g>
  <g id="_2038416558448">
   <circle class="fil0" cx="3669.01" cy="4119.89" r="767.29"/>
   <path class="fil17" d="M3668.87 4769.47l0.21 -108.59 33.95 -7.09c-166.5,1.78 -290.45,-44.88 -381.93,-127.36 -73.44,-66.21 -164.13,-176.52 -179.41,-323.12l68.63 15.51c9.98,-24.14 83.99,-335.27 82.99,-348.76 -24.81,-6.47 -66.03,-14.11 -81.05,-27.75 77.73,-134.09 236.46,-254.32 459.81,-257.32l-2.56 -114.78c-357.73,-4.87 -650.21,293.18 -650.48,648.81 -0.26,354.92 292.09,657.05 649.84,650.45z"/>
   <path class="fil18" d="M3672.07 3584.99c110.24,1.72 206.75,34.83 282.22,81.88 53.27,33.22 161.31,129.54 179.26,193.43 -24.93,5.45 -64.44,13.09 -83.9,26.61 -5.4,14.96 67.18,320.37 81.78,349.07l62.18 -16.73c-12.86,120.29 -106.85,249.23 -166.63,298.85 -82.26,68.26 -177.61,126.93 -323.95,135.69l-33.95 7.09 -0.21 108.59c356.96,7.67 650.62,-296.03 650.12,-650.45 -0.5,-356.46 -292.59,-652.9 -649.48,-648.81l2.56 114.78z"/>
   <path class="fil19" d="M3491.46 4023.43c5.24,-29.16 54.39,-78.5 72.77,-103.93 29.75,-41.16 61.37,-42.12 115.61,-55.99 -4.07,-3.52 -3.34,-3.35 -10.35,-7.06l-22.91 -7.72c-12.37,-3.25 -21.43,-5.98 -33.98,-6.21 -25.5,-0.46 -44.68,11 -64.29,20.78 -38.75,19.34 -74.48,41.39 -107.23,63.86 -60.28,41.37 -45.55,5.72 -64.63,106.65 -7.07,37.37 -23.92,104.44 -24.3,139.3 49.76,7.59 47.24,-32.04 88.55,-3.23 7.27,34.92 -14.96,42.42 -27.38,68.11 33.04,-17.96 72.29,-98.06 122.7,-48.27 3.07,40.09 -50.25,78.91 -63.77,113.98 43.46,-26.5 77.35,-106.86 116.06,-89.97 61.18,26.71 -24.3,117.9 -34.3,142.05 21.04,-10.04 32.77,-43.74 59.18,-45.32 38.95,-2.32 28.06,38.15 25.97,69.05 27.14,10.77 44.09,19.78 71.55,3.44 -4.36,-20.26 -44.66,-35.53 -55.93,-51.58 42,7.51 131.09,101.69 160.55,24.11 -21.85,-19.76 -126.67,-83.97 -134.24,-97.91 20.85,-0.46 95.96,47.78 119.24,61.36 16.13,9.4 41.07,28.15 61.06,23.63 23.73,-5.37 39.01,-23.29 42.9,-48.51 -50.33,-26.46 -127.77,-68.75 -159.55,-104.68 72.58,7.3 169.34,134.04 217.34,62.48 62.56,-93.28 -122.58,-69.55 -242.79,-268.67l9.32 -10.11c13.35,-13.59 18.08,-17.74 19.11,-44.03 -15.61,21.77 -10.38,28.06 -40.82,37.53 -57.55,17.9 -44,-3 -54.73,6.83 -21.98,32.64 -24.28,51.28 -63.57,66.05 -41.97,15.78 -71.12,6.4 -97.14,-16.02z"/>
   <path class="fil20" d="M3491.46 4023.43c26.02,22.42 55.17,31.8 97.14,16.02 39.29,-14.77 41.59,-33.41 63.57,-66.05 10.73,-9.83 -2.82,11.07 54.73,-6.83 30.44,-9.47 25.21,-15.76 40.82,-37.53 -1.03,26.29 -5.76,30.44 -19.11,44.03l-9.32 10.11c120.21,199.12 305.35,175.39 242.79,268.67 -48,71.56 -144.76,-55.18 -217.34,-62.48 31.78,35.93 109.22,78.22 159.55,104.68 -3.89,25.22 -19.17,43.14 -42.9,48.51 -19.99,4.52 -44.93,-14.23 -61.06,-23.63 -23.28,-13.58 -98.39,-61.82 -119.24,-61.36 7.57,13.94 112.39,78.15 134.24,97.91 -29.46,77.58 -118.55,-16.6 -160.55,-24.11 11.27,16.05 51.57,31.32 55.93,51.58 -27.46,16.34 -44.41,7.33 -71.55,-3.44 2.09,-30.9 12.98,-71.37 -25.97,-69.05 -26.41,1.58 -38.14,35.28 -59.18,45.32 10,-24.15 95.48,-115.34 34.3,-142.05 -38.71,-16.89 -72.6,63.47 -116.06,89.97 13.52,-35.07 66.84,-73.89 63.77,-113.98 -50.41,-49.79 -89.66,30.31 -122.7,48.27 12.42,-25.69 34.65,-33.19 27.38,-68.11 -41.31,-28.81 -38.79,10.82 -88.55,3.23 0.38,-34.86 17.23,-101.93 24.3,-139.3 19.08,-100.93 4.35,-65.28 64.63,-106.65 32.75,-22.47 68.48,-44.52 107.23,-63.86 19.61,-9.78 38.79,-21.24 64.29,-20.78 12.55,0.23 21.61,2.96 33.98,6.21l22.91 7.72c7.01,3.71 6.28,3.54 10.35,7.06 -54.24,13.87 -85.86,14.83 -115.61,55.99 -18.38,25.43 -67.53,74.77 -72.77,103.93zm-112.6 -88.09l-49.37 254 27.73 4.88c-1.12,34.98 15.39,57.94 48.55,51.87 -0.99,25.81 0.61,35.28 13.75,51.27 16.15,19.66 22.43,18.56 47.68,13.73 -12.14,64.03 53.91,66.72 75.17,55.83 0.7,0.95 1.19,1.57 1.38,3.24 1.47,12.83 14.1,31.57 29.9,39.83 26.09,13.62 39.96,-1.41 54.25,-15.7 20.79,2.59 39.39,12.72 56.98,14.02 31.68,2.34 30.17,-17.51 53.08,-16.99 21.29,0.49 26.48,16.94 57.37,6.17 18.17,-6.34 30.35,-22.59 37.71,-36.84 90.64,-2.6 61.8,-37.28 97.41,-64.77 27.11,-20.93 64.46,-19.51 60.72,-106.42 27.15,-20.08 19.64,6.81 -2.18,-109.85 -8.15,-43.6 -16.15,-87.7 -24.52,-131.36 -56.72,-8.41 -146.4,-109.08 -210.34,-105.43 -50.83,2.91 -23.51,13.64 -82.38,-3.97 -90.09,-26.96 -128.24,-1.89 -221.81,61.96 -25.84,17.63 -32.19,29.63 -71.08,34.53z"/>
   <path class="fil20" d="M3978.47 3937.26c2.8,53.5 21.69,127.93 32.6,180.95 25.07,121.8 5.1,104.92 91,85.42l-67.48 -277.94 -56.12 11.57z"/>
   <path class="fil20" d="M3237.74 4189.61l69.34 13.97c11.61,-51.1 55.18,-242.04 52.19,-278.93l-54.47 -14.04 -67.06 279z"/>
  </g>
  <g id="_2038462356976">
   <circle class="fil0" cx="926.04" cy="926.04" r="767.29"/>
   <g>
    <path class="fil21" d="M735.29 1149.68l403.96 0.54 0.28 -548.04c-0.56,-27.86 -21.3,-50.94 -46.1,-57.54 -20.48,-5.46 -75.69,-2.62 -101.45,-2.62 -35.38,0 -610.85,-1.44 -625.59,0.5l-0.12 513.95c-5.16,3.05 -15.51,3.73 -22.57,8.04 -38.07,23.21 -23.66,83.27 20.89,86.38 12.68,0.88 48.81,1.22 60.66,-0.38 15.26,-37.59 17.51,-52.24 53.91,-83.33 56.91,-48.63 141.56,-48.66 202.48,-0.6 19.44,15.33 46.93,49.46 53.65,83.1z"/>
    <path class="fil21" d="M1250.89 763.2c12.08,-2.39 99.7,-0.63 124.3,-0.66 17.96,-0.02 21.7,-1.82 30.8,9.66 10.85,13.71 57.65,85.54 61.4,103.19 -22.94,0.76 -207.2,1.61 -216.71,-0.7l0.21 -111.49zm-61.14 314.5c1.92,-0.66 11.41,-9.88 13.87,-11.74 5.46,-4.13 9.59,-7.47 15.83,-11.33 52.29,-32.3 119.72,-32.38 171.05,1.64 33.7,22.33 60.71,57.01 69.14,98.03 83.34,1.99 69.43,3.42 69.43,-87.27 0,-132.7 14.09,-150.14 -52.9,-262.44 -14.72,-24.67 -47.11,-82.87 -77.06,-80.93l-210.49 -0.47 -0.23 351.39 1.36 3.12z"/>
    <path class="fil21" d="M576.48 1134.93c29.62,-4.46 56.09,21.02 59.56,48.29 4.05,31.79 -21.07,59.36 -48.33,61.85 -71.74,6.57 -90,-98.28 -11.23,-110.14zm124.79 66.38c4.88,-34.9 -11.55,-72.03 -28.74,-90.9 -71.04,-78 -200.34,-39.93 -212.42,65.67 -7.92,69.25 44.45,129.48 107.87,134.22 42.29,3.16 68.01,-9.35 92.29,-28.8 21.4,-17.14 35.88,-43.62 41,-80.19z"/>
    <path class="fil21" d="M1300.44 1134.91c29.69,-4.32 55.89,22.77 58.9,48.79 3.64,31.6 -21.31,58.93 -48.97,61.37 -51.7,4.57 -81.46,-52.11 -48.29,-92.02 10.65,-12.81 24.15,-16.07 38.36,-18.14zm-117.78 66.4c8.22,64.82 59.01,114.27 133.75,109.01 62.4,-4.4 114.57,-62.72 108.2,-132.83 -5.64,-62.05 -62.74,-114.96 -132.62,-107.84 -39.16,3.98 -60.81,21.18 -79.88,41.01 -16.91,17.59 -33.77,56.56 -29.45,90.65z"/>
    <path class="fil22" d="M735.29 1149.68c1.01,1.63 -1.95,2.71 10.72,2.64 4.03,-0.02 8.07,-0.11 12.12,-0.11 64.57,-0.02 374.11,1.99 382.43,-1.48 2.51,-14.39 0.29,-460.64 0.62,-531.78 0.03,-5.17 1.17,-12.42 -1.65,-16.77l-0.28 548.04 -403.96 -0.54z"/>
    <path class="fil23" d="M1189.75 1077.7l-1.36 -3.12 0.23 -351.39 210.49 0.47c-1.6,-1.81 2.53,-1.23 -4.3,-2.35l-207.74 0.04 -0.59 358.82c5.3,0.09 0.94,0.5 3.27,-2.47z"/>
   </g>
  </g>
  <circle class="fil0" cx="8415.91" cy="-1949.27" r="767.29"/>
  <path class="fil24" d="M8839.58 -1521.66c-60.14,-144.43 -211.08,-283.03 -423.03,-283.03 -211.05,0 -363.72,138.76 -422.99,283.12l36.4 33.57c98.88,89.43 252.85,141.24 393.82,141.24 116.22,0 248.96,-44.26 335.64,-107.78 15.14,-11.11 29.34,-20.46 42.54,-32.27 13.06,-11.7 25.64,-24.05 37.62,-34.85zm-399.46 -835.73c-72,-9.09 -142.93,22.85 -179.94,56.56 -104.38,95.1 -111.11,244.08 -26.59,339.36 143.48,161.74 399.2,76.1 422.43,-132.08 14.49,-129.88 -77.77,-246.42 -215.9,-263.84zm-697.65 446.65c-15.88,-181.1 62.3,-370.3 176.3,-495.48 7.66,-8.41 14.18,-13.09 22.15,-21.11 7.63,-7.68 11.82,-13.83 19.92,-20.94 120.43,-105.52 243.2,-161.03 415.86,-175.03 187.06,-15.17 368.1,61.55 496.86,176.15 21.8,19.4 62.5,65.44 80.33,88.18 138.64,176.8 179.38,447.46 90.26,658.85 -66.97,158.84 -169.73,274.16 -321.6,353.09 -76.7,39.86 -163.59,63.33 -266.42,71.76 -188.07,15.43 -366.55,-62.5 -496.39,-176.32 -29.35,-25.73 -54.98,-56.36 -80.15,-88.47 -24.59,-31.36 -45.28,-64.8 -65.28,-103.29 -40.77,-78.41 -62.7,-163.08 -71.84,-267.39z"/>
  <path class="fil25" d="M8839.58 -1521.66c-11.98,10.8 -24.56,23.15 -37.62,34.85 -13.2,11.81 -27.4,21.16 -42.54,32.27 -86.68,63.52 -219.42,107.78 -335.64,107.78 -140.97,0 -294.94,-51.81 -393.82,-141.24l-36.4 -33.57c59.27,-144.36 211.94,-283.12 422.99,-283.12 211.95,0 362.89,138.6 423.03,283.03z"/>
  <path class="fil25" d="M8440.12 -2357.39c138.13,17.42 230.39,133.96 215.9,263.84 -23.23,208.18 -278.95,293.82 -422.43,132.08 -84.52,-95.28 -77.79,-244.26 26.59,-339.36 37.01,-33.71 107.94,-65.65 179.94,-56.56z"/>
  <path class="fil7" d="M-7023.6 271.7c5.01,1.63 9.83,3.65 14.43,6.04l17.48 -10.27 19.51 -11.46 13.03 13.02 13.02 13.03 -11.46 19.51 -10.37 17.64c2.36,4.62 4.36,9.46 5.95,14.47l19.61 5.1 21.9 5.69 0 18.42 0 18.41 -21.9 5.7 -19.8 5.14c-1.62,5.01 -3.65,9.83 -6.04,14.44l10.27 17.47 11.46 19.51 -13.02 13.03 -13.03 13.02 -19.51 -11.46 -17.65 -10.37c-4.61,2.36 -9.45,4.35 -14.46,5.95l-5.1 19.61 -5.69 21.9 -18.42 0 -18.41 0 -5.7 -21.9 -5.14 -19.8c-5.01,-1.62 -9.83,-3.65 -14.44,-6.04l-17.47 10.27 -19.51 11.46 -13.03 -13.02 -13.02 -13.03 11.46 -19.51 10.37 -17.65c-2.36,-4.61 -4.35,-9.45 -5.95,-14.46l-19.61 -5.1 -21.9 -5.69 0 -18.42 0 -18.41 21.9 -5.7 19.8 -5.14c1.62,-5.01 3.65,-9.83 6.04,-14.44l-10.27 -17.47 -11.46 -19.51 13.02 -13.03 13.03 -13.02 19.51 11.46 17.65 10.37c4.61,-2.36 9.45,-4.35 14.46,-5.95l5.1 -19.61 5.69 -21.9 18.42 0 18.41 0 5.7 21.9 5.14 19.8zm-29.52 48.24c23.57,0 42.68,19.11 42.68,42.68 0,23.57 -19.11,42.68 -42.68,42.68 -23.57,0 -42.68,-19.11 -42.68,-42.68 0,-23.57 19.11,-42.68 42.68,-42.68z"/>
  <g id="_2038462419472">
   <path class="fil21" d="M-5646.03 384.27l96.62 0.13 0.06 -131.08c-0.13,-6.66 -5.09,-12.18 -11.02,-13.76 -4.9,-1.31 -18.11,-0.63 -24.27,-0.63 -8.46,0 -146.09,-0.34 -149.62,0.12l-0.03 122.92c-1.23,0.73 -3.71,0.9 -5.4,1.93 -9.1,5.55 -5.66,19.91 5,20.66 3.03,0.21 11.67,0.29 14.51,-0.09 3.65,-8.99 4.18,-12.5 12.89,-19.94 13.61,-11.63 33.86,-11.63 48.43,-0.14 4.65,3.67 11.22,11.83 12.83,19.88z"/>
   <path class="fil21" d="M-5522.71 291.83c2.89,-0.57 23.85,-0.15 29.73,-0.16 4.29,0 5.19,-0.43 7.36,2.31 2.6,3.28 13.79,20.46 14.69,24.68 -5.49,0.19 -49.56,0.39 -51.83,-0.16l0.05 -26.67zm-14.63 75.22c0.46,-0.16 2.73,-2.36 3.32,-2.81 1.31,-0.99 2.3,-1.78 3.79,-2.71 12.51,-7.72 28.63,-7.74 40.91,0.39 8.06,5.35 14.52,13.64 16.54,23.45 19.93,0.48 16.6,0.82 16.6,-20.87 0,-31.74 3.37,-35.91 -12.65,-62.77 -3.52,-5.9 -11.27,-19.82 -18.43,-19.36l-50.35 -0.11 -0.05 84.04 0.32 0.75z"/>
   <path class="fil21" d="M-5684.01 380.74c7.08,-1.07 13.41,5.03 14.24,11.55 0.97,7.6 -5.04,14.2 -11.56,14.79 -17.16,1.57 -21.52,-23.5 -2.68,-26.34zm29.84 15.87c1.17,-8.34 -2.76,-17.22 -6.87,-21.73 -16.99,-18.66 -47.92,-9.56 -50.8,15.7 -1.9,16.56 10.63,30.97 25.79,32.1 10.12,0.76 16.27,-2.23 22.08,-6.89 5.12,-4.1 8.58,-10.43 9.8,-19.18z"/>
   <path class="fil21" d="M-5510.86 380.73c7.1,-1.03 13.37,5.45 14.09,11.67 0.87,7.56 -5.1,14.1 -11.72,14.68 -12.36,1.09 -19.48,-12.46 -11.55,-22.01 2.55,-3.06 5.78,-3.84 9.18,-4.34zm-28.17 15.88c1.97,15.51 14.11,27.34 31.99,26.08 14.92,-1.05 27.4,-15 25.88,-31.77 -1.35,-14.84 -15.01,-27.5 -31.72,-25.8 -9.37,0.96 -14.55,5.07 -19.11,9.81 -4.04,4.21 -8.07,13.53 -7.04,21.68z"/>
   <path class="fil22" d="M-5646.03 384.27c0.24,0.39 -0.47,0.64 2.56,0.63 0.97,-0.01 1.94,-0.03 2.9,-0.03 15.45,0 89.48,0.48 91.47,-0.35 0.6,-3.44 0.07,-110.18 0.15,-127.19 0.01,-1.24 0.28,-2.97 -0.4,-4.01l-0.06 131.08 -96.62 -0.13z"/>
   <path class="fil23" d="M-5537.34 367.05l-0.32 -0.75 0.05 -84.04 50.35 0.11c-0.38,-0.43 0.61,-0.29 -1.03,-0.56l-49.68 0.01 -0.15 85.82c1.27,0.02 0.23,0.12 0.78,-0.59z"/>
  </g>
  <g id="_2038462384144">
   <path class="fil1" d="M-6151.66 399.11l8.98 -0.02 0.2 13.79 -8.99 0.13 -0.19 -13.9zm9.01 -9.47l-9.16 -0.1c-3.25,-36.78 -35.18,-19.07 -54.68,-61.55 -16.01,-34.85 3.28,-68.32 24.37,-81.37 2.03,1.58 4.14,4.93 4.92,7.75 -28.35,16.62 -37.77,65.02 -3.97,91.16 6.22,4.81 10.69,6.09 17.8,9.77 10.28,5.32 21.66,18.34 20.72,34.34zm-88.07 -88.23c0.16,11.43 2.34,23.45 6.64,32.55 2.63,5.98 5.34,10.97 8.83,15.93 3.92,5.57 7.88,8.8 11.42,13.29 2.33,1.31 4.27,3.52 6.9,5.39 2.32,1.64 4.72,3.17 7.14,5.16 4.34,3.58 8.26,8.11 9.58,16.08 1.25,4.49 0.4,16.8 0.59,22.72 0.1,3.48 0.85,6.2 2.64,8.62 2.13,2.88 4.41,3.35 5.89,4.93 8.16,1.62 37.55,1.64 46.43,0.5 12.23,-6.75 10.09,-9.41 10.11,-28.6 0.02,-14.11 5.06,-20.84 13.24,-26.49 8.27,-5.73 14.61,-11.2 20.4,-18.8 3.76,-4.94 12.47,-18.51 13.41,-26.47 -5.58,-4.39 -12.34,-0.8 -14.06,4.78 -1.75,5.67 -0.92,14.14 -3.38,19.06l-27.02 -3.63c0.19,-9.17 6.54,-24.06 -3.08,-27.92 -9.66,-3.88 -17.6,10.31 -24.3,11.37 -2.57,-2.87 -14.97,-19.26 -15.95,-21.82 2.44,-2.57 7,-5.53 10.2,-7.92 3.37,-2.52 7.79,-4.78 7.49,-10.94 -0.6,-12.5 -17.74,-7.78 -25.61,-11.6 0.12,-4.18 2.65,-24.45 4.29,-27.02 8.99,0.26 23.53,6.41 27.24,-3.09 3.11,-7.95 -5.69,-14.52 -11.5,-23.55 1.31,-2.29 3.59,-3.46 5.37,-5.14 -0.8,-0.51 0.87,-0.07 -1.64,-0.64 -4.19,-0.96 -15.36,-0.22 -19.4,0.29 -40.02,5.07 -71.97,41.09 -71.87,82.96z"/>
   <path class="fil2" d="M-6087.44 242.26c14.07,-0.06 24.87,9.11 29.2,18.8 5.28,11.85 2.53,28.31 -5.58,35.22 -5.11,7.07 -17.87,12.8 -30.47,10.27 -11.26,-2.25 -19.2,-10.04 -23.08,-18.27 -10.8,-22.98 7.54,-46.52 29.93,-46.02zm-50.37 -23.46c-1.78,1.68 -4.06,2.85 -5.37,5.14 5.81,9.03 14.61,15.6 11.5,23.55 -3.71,9.5 -18.25,3.35 -27.24,3.09 -1.64,2.57 -4.17,22.84 -4.29,27.02 7.87,3.82 25.01,-0.9 25.61,11.6 0.3,6.16 -4.12,8.42 -7.49,10.94 -3.2,2.39 -7.76,5.35 -10.2,7.92 0.98,2.56 13.38,18.95 15.95,21.82 6.7,-1.06 14.64,-15.25 24.3,-11.37 9.62,3.86 3.27,18.75 3.08,27.92l27.02 3.63c2.46,-4.92 1.63,-13.39 3.38,-19.06 1.72,-5.58 8.48,-9.17 14.06,-4.78 3.97,2.38 8.83,11.72 13.02,15.87 2.33,-0.77 19.04,-13.41 21.81,-15.9 -1.15,-6.84 -15.21,-14.59 -11.36,-24.27 3.88,-9.72 18.57,-3.28 27.94,-3.2l3.47 -27.39c-10.03,-1.54 -24.87,-0.69 -25.47,-11.13 -0.48,-8.42 12.33,-13.75 17.64,-18.86 -0.85,-2.78 -5.98,-8.84 -8.03,-11.51 -2.15,-2.81 -5.3,-8.56 -8.6,-10.47 -3.97,2.44 -6.8,4.98 -10.59,7.77 -3.03,2.23 -7.16,5.94 -12.93,3.69 -10.39,-4.05 -2.22,-18.81 -3.47,-27.91l-26.36 -3.21c-0.11,-0.19 -0.41,0.09 -0.59,0.18 -3.29,9.53 0.47,24.39 -11.33,25.03 -8.11,0.43 -11.25,-9.33 -18.86,-17.71 -4.66,1.74 -11.5,8.85 -16.6,11.6z"/>
   <path class="fil3" d="M-6180.21 389.81c-1.32,-7.97 -5.24,-12.5 -9.58,-16.08 -2.42,-1.99 -4.82,-3.52 -7.14,-5.16 -2.63,-1.87 -4.57,-4.08 -6.9,-5.39 -5.01,18.79 -29.57,23.24 -41.12,7.66 -11.74,-15.84 0.08,-37.37 20.87,-36.88 -4.3,-9.1 -6.48,-21.12 -6.64,-32.55l-5.8 0.31c-2.27,5.64 -1.14,17.92 -7.36,18.51 -3.51,0.33 -12.32,-7.32 -15.84,-9.15 -1.82,0.98 -12.35,11.14 -13.67,13.66 1.86,3.92 9.79,12.69 9.04,16.43 -0.87,4.3 -12.41,5.64 -18.72,6.73l0.17 18.18c4.93,2.56 17.66,1.24 18.62,7.43 0.65,4.24 -7.77,11.92 -9.13,16.54l13.69 13.2c5.44,-2.65 10.58,-9.53 17.56,-8.92 4.08,2.09 3.49,17.1 6.26,18.13l1.02 0.4c0.19,0.05 0.38,0.09 0.59,0.13l16.16 -0.21c1.43,-6.07 1.97,-14.87 5.5,-18.35 6.45,-0.89 12.14,5.9 17.45,8.77 5.17,-2.29 9.4,-10.49 14.97,-13.39z"/>
   <path class="fil1" d="M-6063.82 296.28c0.75,-9.02 -4.35,-24.01 -7.57,-30.76 -2.14,-4.48 -4.63,-8.58 -7.27,-12.33 -3.07,-4.35 -6.04,-6.99 -8.78,-10.93 -22.39,-0.5 -40.73,23.04 -29.93,46.02 3.88,8.23 11.82,16.02 23.08,18.27 12.6,2.53 25.36,-3.2 30.47,-10.27z"/>
   <path class="fil4" d="M-6142.65 389.64c0.94,-16 -10.44,-29.02 -20.72,-34.34 -7.11,-3.68 -11.58,-4.96 -17.8,-9.77 -33.8,-26.14 -24.38,-74.54 3.97,-91.16 -0.78,-2.82 -2.89,-6.17 -4.92,-7.75 -21.09,13.05 -40.38,46.52 -24.37,81.37 19.5,42.48 51.43,24.77 54.68,61.55l9.16 0.1z"/>
   <path class="fil5" d="M-6124.11 445.64l-46.25 -0.31c-0.39,21.17 12.61,18.12 24.5,18.12 7.49,0 12.76,1.14 17,-2.78 6.53,-6.04 3.38,-6.85 4.75,-15.03z"/>
   <path class="fil6" d="M-6170.36 445.33l46.25 0.31 0.73 -9c-6.55,-0.85 -41.4,-1.04 -47.33,0.06l0.35 8.63z"/>
   <path class="fil5" d="M-6170.71 436.7c5.93,-1.1 40.78,-0.91 47.33,-0.06 -1.2,-2.51 -0.96,-6.26 -1.28,-10.06 -8.88,1.14 -38.27,1.12 -46.43,-0.5 1.1,3.54 0.8,7 0.38,10.62z"/>
   <path class="fil1" d="M-6270.49 220.93c-8.89,4.47 3.78,11.35 9.36,15.29 3,2.12 5.79,4.1 8.91,6.31 2.46,1.74 6.35,5.9 10.31,4.38 2.12,-0.81 5.12,-4.92 -1.09,-9.23l-17.81 -12.64c-2.43,-1.73 -6.39,-5.76 -9.68,-4.11z"/>
   <path class="fil1" d="M-6231.85 195.11c-3.95,2.54 -2.6,4.76 -1.33,9.48 3.09,11.5 4.85,30.29 12.54,26.54 5.14,-2.5 -0.23,-15.95 -1.49,-20.97 -1.27,-5.02 -2.74,-19.51 -9.72,-15.05z"/>
   <path class="fil1" d="M-6252.17 266.04c-7.01,1.82 -14.51,3.5 -21.81,5.26 -3.72,0.89 -7.42,1.46 -7.92,5.03 -0.64,4.68 3.63,5.61 8,4.59 7.4,-1.72 14.29,-3.68 21.56,-5.44 3.85,-0.94 7.32,-1.28 7.61,-5.23 0.34,-4.63 -3.5,-5.24 -7.44,-4.21z"/>
   <path class="fil1" d="M-6041.03 418.75c4.3,1.63 7.67,-1.94 6.22,-5.59 -1.05,-2.65 -12.32,-11.21 -14.93,-13.38 -1.64,-1.36 -6.19,-5.58 -7.6,-6.26 -4.21,-2.06 -8.41,1.12 -6.53,5.92l22.84 19.31z"/>
   <path class="fil1" d="M-6058.43 372.61c1.35,4.9 12.42,3.15 17.73,3.16 5.63,0 15.97,1.63 14.26,-5.79 -1.19,-5.2 -12.21,-3.41 -17.89,-3.42 -5.47,0 -16.19,-1.49 -14.1,6.05z"/>
   <path class="fil1" d="M-6086.34 432.8c1,4.03 9.07,7.03 9.01,-5.06 -0.02,-4.24 0.51,-17.04 -0.24,-20.29 -1.08,-4.68 -9.08,-7.06 -9.03,5.03 0.01,4.04 -0.48,17.34 0.26,20.32z"/>
   <polygon class="fil4" points="-6151.47,413.01 -6142.48,412.88 -6142.68,399.09 -6151.66,399.11 "/>
  </g>
  <g id="_2038462380752">
   <path class="fil17" d="M-6559.77 467.11l0.04 -21.9 6.85 -1.43c-33.58,0.36 -58.59,-9.06 -77.04,-25.69 -14.81,-13.36 -33.11,-35.61 -36.19,-65.18l13.85 3.13c2.01,-4.87 16.94,-67.63 16.74,-70.35 -5.01,-1.31 -13.32,-2.85 -16.35,-5.6 15.68,-27.05 47.69,-51.3 92.75,-51.91l-0.52 -23.15c-72.16,-0.98 -131.16,59.14 -131.21,130.88 -0.05,71.59 58.92,132.53 131.08,131.2z"/>
   <path class="fil18" d="M-6559.12 228.18c22.23,0.35 41.7,7.03 56.92,16.52 10.75,6.7 32.54,26.13 36.16,39.02 -5.02,1.1 -12.99,2.64 -16.92,5.37 -1.09,3.01 13.55,64.62 16.5,70.41l12.54 -3.38c-2.59,24.27 -21.55,50.28 -33.61,60.29 -16.6,13.77 -35.83,25.6 -65.35,27.37l-6.85 1.43 -0.04 21.9c72.01,1.55 131.24,-59.71 131.14,-131.2 -0.1,-71.91 -59.02,-131.7 -131.01,-130.88l0.52 23.15z"/>
   <path class="fil19" d="M-6595.55 316.62c1.05,-5.88 10.97,-15.83 14.67,-20.96 6.01,-8.3 12.38,-8.5 23.32,-11.29 -0.82,-0.71 -0.67,-0.68 -2.08,-1.43l-4.63 -1.55c-2.49,-0.66 -4.32,-1.21 -6.85,-1.26 -5.14,-0.09 -9.01,2.22 -12.97,4.19 -7.81,3.91 -15.02,8.35 -21.63,12.89 -12.16,8.34 -9.18,1.15 -13.03,21.51 -1.43,7.54 -4.83,21.07 -4.91,28.1 10.04,1.53 9.53,-6.47 17.87,-0.66 1.46,7.05 -3.02,8.56 -5.53,13.74 6.67,-3.62 14.59,-19.78 24.75,-9.73 0.62,8.08 -10.13,15.92 -12.86,22.99 8.77,-5.35 15.6,-21.56 23.41,-18.15 12.34,5.39 -4.9,23.78 -6.92,28.65 4.25,-2.02 6.61,-8.82 11.94,-9.14 7.86,-0.47 5.66,7.7 5.24,13.93 5.47,2.17 8.89,3.99 14.43,0.69 -0.88,-4.08 -9.01,-7.16 -11.28,-10.4 8.47,1.51 26.44,20.51 32.39,4.86 -4.41,-3.98 -25.56,-16.93 -27.08,-19.75 4.2,-0.09 19.35,9.64 24.05,12.38 3.25,1.9 8.28,5.68 12.32,4.77 4.78,-1.09 7.86,-4.7 8.65,-9.79 -10.15,-5.34 -25.77,-13.87 -32.18,-21.11 14.64,1.47 34.15,27.03 43.84,12.6 12.62,-18.82 -24.73,-14.03 -48.98,-54.19l1.88 -2.04c2.7,-2.75 3.65,-3.58 3.86,-8.88 -3.15,4.39 -2.1,5.65 -8.24,7.56 -11.61,3.62 -8.87,-0.6 -11.04,1.38 -4.43,6.59 -4.89,10.35 -12.82,13.33 -8.47,3.18 -14.35,1.29 -19.59,-3.24z"/>
   <path class="fil20" d="M-6595.55 316.62c5.24,4.53 11.12,6.42 19.59,3.24 7.93,-2.98 8.39,-6.74 12.82,-13.33 2.17,-1.98 -0.57,2.24 11.04,-1.38 6.14,-1.91 5.09,-3.17 8.24,-7.56 -0.21,5.3 -1.16,6.13 -3.86,8.88l-1.88 2.04c24.25,40.16 61.6,35.37 48.98,54.19 -9.69,14.43 -29.2,-11.13 -43.84,-12.6 6.41,7.24 22.03,15.77 32.18,21.11 -0.79,5.09 -3.87,8.7 -8.65,9.79 -4.04,0.91 -9.07,-2.87 -12.32,-4.77 -4.7,-2.74 -19.85,-12.47 -24.05,-12.38 1.52,2.82 22.67,15.77 27.08,19.75 -5.95,15.65 -23.92,-3.35 -32.39,-4.86 2.27,3.24 10.4,6.32 11.28,10.4 -5.54,3.3 -8.96,1.48 -14.43,-0.69 0.42,-6.23 2.62,-14.4 -5.24,-13.93 -5.33,0.32 -7.69,7.12 -11.94,9.14 2.02,-4.87 19.26,-23.26 6.92,-28.65 -7.81,-3.41 -14.64,12.8 -23.41,18.15 2.73,-7.07 13.48,-14.91 12.86,-22.99 -10.16,-10.05 -18.08,6.11 -24.75,9.73 2.51,-5.18 6.99,-6.69 5.53,-13.74 -8.34,-5.81 -7.83,2.19 -17.87,0.66 0.08,-7.03 3.48,-20.56 4.91,-28.1 3.85,-20.36 0.87,-13.17 13.03,-21.51 6.61,-4.54 13.82,-8.98 21.63,-12.89 3.96,-1.97 7.83,-4.28 12.97,-4.19 2.53,0.05 4.36,0.6 6.85,1.26l4.63 1.55c1.41,0.75 1.26,0.72 2.08,1.43 -10.94,2.79 -17.31,2.99 -23.32,11.29 -3.7,5.13 -13.62,15.08 -14.67,20.96zm-22.72 -17.76l-9.95 51.23 5.59 0.99c-0.23,7.05 3.1,11.68 9.79,10.46 -0.2,5.2 0.12,7.11 2.77,10.34 3.26,3.96 4.53,3.74 9.62,2.77 -2.45,12.92 10.88,13.46 15.17,11.26 0.14,0.19 0.23,0.32 0.27,0.65 0.3,2.59 2.85,6.37 6.04,8.04 5.26,2.75 8.06,-0.29 10.94,-3.17 4.19,0.52 7.94,2.57 11.49,2.83 6.39,0.47 6.09,-3.53 10.71,-3.43 4.29,0.1 5.34,3.42 11.57,1.25 3.67,-1.28 6.12,-4.56 7.61,-7.43 18.28,-0.53 12.46,-7.52 19.65,-13.07 5.46,-4.22 13,-3.93 12.24,-21.47 5.48,-4.05 3.97,1.38 -0.44,-22.15 -1.64,-8.8 -3.25,-17.69 -4.94,-26.5 -11.44,-1.7 -29.53,-22 -42.43,-21.27 -10.25,0.59 -4.74,2.75 -16.62,-0.8 -18.17,-5.44 -25.87,-0.38 -44.74,12.5 -5.21,3.56 -6.49,5.98 -14.34,6.97z"/>
   <path class="fil20" d="M-6497.32 299.24c0.57,10.79 4.38,25.81 6.58,36.5 5.06,24.57 1.03,21.17 18.35,17.23l-13.61 -56.06 -11.32 2.33z"/>
   <path class="fil20" d="M-6646.73 350.15l13.98 2.81c2.35,-10.31 11.13,-48.82 10.53,-56.26l-10.99 -2.83 -13.52 56.28z"/>
  </g>
  <g id="_2038462373040">
   <g>
    <path class="fil10" d="M-8111.49 -198.83l0 0c-11.46,-7.18 -22.99,-13.67 -34.42,-19.24 -7.93,-1 -20.63,3.37 -35.51,11.18l-59.36 -6.85 -57.03 -94.25c46.15,-34.13 130.22,-86.8 147.58,-88.04 18.6,3.72 102.17,54.95 148.8,88.06l-110.06 109.14z"/>
    <path class="fil11" d="M-8186.79 -203.98l-87.46 -69.29 1.24 -33.48 120.3 -74.4 126.48 76.9 -2.49 71.93 -76.89 37.25c-13.38,-8.7 -26.91,-16.48 -40.3,-23 -8.87,-1.12 -23.7,4.48 -40.88,14.09z"/>
   </g>
   <g>
    <path class="fil12" d="M-8238.42 -267.33l-0.02 -0.18c-7.36,-47.93 12.33,-88.15 63.27,-107.7 50.9,-13.48 84.24,4.31 100.72,41.65 11.47,30.52 8.48,57.59 -19.22,79.37l3.49 5.97 -49.46 33.29c-2.09,-1.07 -4.18,-2.13 -6.27,-3.14 -4.27,-0.54 -9.92,0.49 -16.54,2.75l-75.97 -52.01z"/>
    <path class="fil13" d="M-8125.51 -299.17l-3.58 -29.74c-33.87,-3.16 -57.08,15 -58.75,41.53 -0.01,44.93 40.71,45.04 51.46,13.8 9.15,16.8 37.7,6.97 44.01,-13.93 5.37,-19.73 0.32,-35.11 -8.17,-49.06 -9.85,-13.37 -23.26,-20.58 -39.93,-22.17 -25.53,0.23 -44.48,8.67 -59.06,22.54 -12.13,13.85 -19.96,29.96 -19.9,50.22 0.88,15.72 4.96,29.06 12.25,40.03l0 0.01 31.98 21.89c12.08,3.92 27.51,2.09 45.67,-4.42 10.55,-4.16 18.19,-8.9 23.57,-14.1l-7.29 -10.15c-18.55,15.22 -45.96,22.2 -66.27,11.23 -11.75,-7.86 -18.24,-18.23 -21.31,-30.23 -4.62,-20.47 -2.29,-35.23 4.66,-46.19 9.68,-15.95 25.64,-25.72 49.37,-27.82 19.38,0.19 30.07,9.89 38.47,27.88 9.36,25.64 -3.91,42.02 -11.13,37.82 -3.4,-2.25 -4.93,-10.06 -6.05,-19.14zm-18.27 8.46c-0.13,-7.82 -2.25,-15.05 -3.41,-20.92 -10.04,2.03 -17.14,7.46 -19.33,18.17 -1.25,10.38 0.41,18.34 6.82,22.32 8.33,2.12 16.55,-5.38 15.92,-19.57z"/>
   </g>
   <g>
    <path class="fil14" d="M-8297.83 -108.34l0.02 -199.65 135.36 92.67c-38.3,13.12 -109.25,68.1 -135.38,106.98z"/>
    <path class="fil14" d="M-8002.69 -108.31l1.26 -199.66 -138.21 93.04c48.87,25.15 98.9,66.18 136.95,106.62z"/>
   </g>
   <path class="fil15" d="M-8145.91 -218.07c-28.96,-3.64 -121.27,64.12 -151.92,109.73l295.14 0.03c-39.68,-42.17 -92.39,-84.99 -143.22,-109.76z"/>
  </g>
  <g id="_2038462371984">
   <path class="fil8 str0" d="M-8272.47 221.46l124.5 0 9.83 0 57.14 59.56 0 12.23 0 179.12c0,12.56 -10.28,22.84 -22.84,22.84l-168.63 0c-12.56,0 -22.84,-10.28 -22.84,-22.84l0 -228.07c0,-12.56 10.28,-22.84 22.84,-22.84z"/>
   <path class="fil1" d="M-8267 238.57l119.03 0 0 35.42c0,10.59 8.66,19.26 19.25,19.26l34.33 0 0 177.84c0,5.9 -4.83,10.72 -10.73,10.72l-161.88 0c-5.9,0 -10.73,-4.82 -10.73,-10.72l0 -221.79c0,-5.9 4.83,-10.73 10.73,-10.73z"/>
   <g>
    <rect class="fil8" x="-8253.45" y="311.66" width="133.11" height="23.44"/>
    <rect class="fil8" x="-8253.45" y="361.06" width="133.11" height="23.44"/>
    <rect class="fil8" x="-8253.45" y="410.45" width="133.11" height="23.44"/>
   </g>
  </g>
  <g id="_2038462368656">
   <circle class="fil16" cx="-8010.13" cy="781.4" r="23.54"/>
   <path class="fil16" d="M-8112.63 768.77c6.51,-2.19 12.9,-1.84 19.22,0.18l50.25 25.26c8.7,4.26 14.56,9.93 17.53,17.05l10.62 37.33c2.25,5.97 6.65,9.25 13.49,9.47l43.64 -6.31c7.73,-0.07 10.03,13.51 -1.14,17.51l-58.62 12.47c-7.75,0.83 -12.15,-3.9 -13.78,-13.21l-6.27 -28.55c-2.18,-8.67 -6.73,-11.03 -13.5,-7.46l-39.04 22.39c-9.21,5.29 -11.75,13.48 -6.03,25.27l19.23 50.82c3.13,7.51 0.89,11.05 -6.31,10.91l-95.32 0.57c-4.16,-1.1 -6.66,-3.68 -7.18,-8.04l0.28 -7.98c0.18,-5.11 3.47,-8.18 7.38,-8.81l52.63 -0.15c9.85,-0.81 10.95,-6.09 7.01,-13.8 -7.7,-15.04 -14.68,-30.23 -20.67,-45.65 -2.96,-7.2 -0.36,-13.67 4.76,-17.78l48.22 -29.57c5.95,-4.67 6.5,-8.64 0.58,-11.78l-14.34 -8.32c-4.87,-2.98 -11.69,-4.39 -23.26,-2.01l-34.94 8.22c-15.3,2.79 -14.69,-13.28 -4.88,-16.94l50.44 -11.09z"/>
   <path class="fil16" d="M-8183.29 987.79c-1.96,-4.23 -0.53,-8.12 3.45,-11.77l32.76 -24.22 40.12 -0.07 -54.19 44.14c-5.74,5.3 -10.59,6.14 -14.43,1.87l-7.71 -9.95z"/>
   <path class="fil16" d="M-8251.85 816.91l115.27 0c1.94,0 8.26,1.58 8.26,3.51l0 0c0,1.94 -6.33,3.52 -8.26,3.52l-115.27 0c-1.94,0 -8.26,-1.58 -8.26,-3.52l0 0c0,-1.93 6.32,-3.51 8.26,-3.51z"/>
   <path class="fil16" d="M-8236.24 832.12l79.88 0c1.53,0 11.81,1.58 11.81,3.52l0 0c0,1.93 -10.29,3.52 -11.81,3.52l-79.88 0c-1.52,0 -12.1,-1.59 -12.1,-3.52l0 0c0,-1.94 10.58,-3.52 12.1,-3.52z"/>
   <path class="fil16" d="M-8228.35 846.76l67.41 0c1.32,0 11.23,1.59 11.23,3.52l0 0c0,1.94 -9.91,3.52 -11.23,3.52l-67.41 0c-1.32,0 -11.23,-1.58 -11.23,-3.52l0 0c0,-1.93 9.91,-3.52 11.23,-3.52z"/>
  </g>
  <g id="_2038462367216">
   <circle class="fil26" cx="-10220.3" cy="3845.74" r="881.95"/>
   <circle class="fil8" cx="-10220.3" cy="3845.74" r="808.19"/>
   <path class="fil7" d="M-10220.3 3143.38c387.91,0 702.36,314.45 702.36,702.36 0,387.91 -314.45,702.36 -702.36,702.36 -387.91,0 -702.36,-314.45 -702.36,-702.36 0,-387.91 314.45,-702.36 702.36,-702.36z"/>
   <g style="clip-path:url(#id0)">
    <g>
     <circle class="fil3 str1" cx="-10219.98" cy="3845.56" r="702.36"/>
     <circle class="fil8 str1" cx="-10219.98" cy="3845.56" r="666.8"/>
    </g>
   </g>
   <path class="fil27 str1" d="M-10220.3 3143.38c387.91,0 702.36,314.45 702.36,702.36 0,387.91 -314.45,702.36 -702.36,702.36 -387.91,0 -702.36,-314.45 -702.36,-702.36 0,-387.91 314.45,-702.36 702.36,-702.36z"/>
   <rect class="fil8 str2" x="-10942.3" y="3681.37" width="1448.6" height="498.29"/>
   <circle class="fil28" cx="-10220.3" cy="3845.74" r="564.98"/>
   <polygon class="fil29" points="-9883.96,4182.09 -10220.3,3845.75 -10556.65,4182.09 "/>
   <polygon class="fil8" points="-9883.96,3509.4 -10220.3,3845.74 -10556.65,3509.4 "/>
  </g>
 </g>
</svg>
