<?xml version="1.0" encoding="UTF-8"?>
<!DOCTYPE svg PUBLIC "-//W3C//DTD SVG 1.1//EN" "http://www.w3.org/Graphics/SVG/1.1/DTD/svg11.dtd">
<!-- Creator: CorelDRAW 2017 -->
<svg xmlns="http://www.w3.org/2000/svg" xml:space="preserve" width="13.229mm" height="13.229mm" version="1.1" style="shape-rendering:geometricPrecision; text-rendering:geometricPrecision; image-rendering:optimizeQuality; fill-rule:evenodd; clip-rule:evenodd"
viewBox="0 0 1322.9 1322.9"
 xmlns:xlink="http://www.w3.org/1999/xlink">
 <defs>
  <style type="text/css">
    .fil0 {fill:#997D0C}
  </style>
 </defs>
 <g id="Layer_x0020_1">
  <metadata id="CorelCorpID_0Corel-Layer"/>
  <g id="_1941799862288">
   <g>
    <path class="fil0" d="M-312.24 -1646.24c9.46,42.89 27.61,56.68 46.54,84.33 16.76,24.48 25.87,62.13 42.42,84.29 33.14,44.38 98.98,91.29 176.16,63.9 87.8,-31.15 99.28,-96.68 122.84,-137.47 55.45,-96.02 70.76,-69.77 39.08,-188.42 -9.46,-35.44 1.69,-72.1 -16.41,-115.58 -8.52,-20.48 -15.94,-25.71 -22.92,-40.27 -10.38,-21.66 -5.34,-21.9 -21.45,-41.98 -34.7,-43.2 -126.38,-61.39 -194.8,-48.24 -74.21,14.26 -123.5,53.25 -143.6,116.72 -14.88,46.99 -5.79,73.57 -11.37,116.79 -5.09,39.44 -32.11,35.14 -16.49,105.93z"/>
    <path class="fil0" d="M-251.36 -1468.45c-93.52,25.26 -234.93,85.03 -260.38,156.49l67.08 340.69 690.36 3.11 67.28 -343.81c-40.07,-80.77 -170.86,-136.46 -249.22,-157.3 -30.21,38.72 -76.05,90.67 -160.27,88.84 -87.21,-1.91 -113.38,-55.64 -154.85,-88.02z"/>
   </g>
   <path class="fil0" d="M1236.34 -1694.72c243.67,0 441.19,197.5 441.23,441.16l-451.82 0 0 -441.03c3.52,-0.08 7.05,-0.13 10.59,-0.13z"/>
   <path class="fil0" d="M1632.34 -1208.31c0,243.69 -197.54,441.23 -441.23,441.23 -243.69,0 -441.23,-197.54 -441.23,-441.23 0,-240.15 191.84,-435.47 430.64,-441.1l0 441.1 451.82 0z"/>
  </g>
  <path class="fil0" d="M310.86 92.34l517.68 0 40.87 0 237.58 247.63 0 50.85 0 744.79c0,52.22 -42.72,94.95 -94.95,94.95l-701.18 0c-52.22,0 -94.95,-42.73 -94.95,-94.95l0 -948.32c0,-52.22 42.73,-94.95 94.95,-94.95zm22.75 71.14l494.93 0 0 147.27c0,44.04 36.02,80.07 80.06,80.07l142.7 0 0 739.45c0,24.53 -20.07,44.6 -44.6,44.6l-673.09 0c-24.53,0 -44.6,-20.07 -44.6,-44.6l0 -922.2c0,-24.53 20.07,-44.59 44.6,-44.59zm56.35 303.91l553.45 0 0 97.47 -553.45 0 0 -97.47zm0 205.37l553.45 0 0 97.46 -553.45 0 0 -97.46zm0 205.37l553.45 0 0 97.46 -553.45 0 0 -97.46z"/>
 </g>
</svg>
