<?xml version="1.0" encoding="UTF-8"?>
<!DOCTYPE svg PUBLIC "-//W3C//DTD SVG 1.1//EN" "http://www.w3.org/Graphics/SVG/1.1/DTD/svg11.dtd">
<!-- Creator: CorelDRAW 2017 -->
<svg xmlns="http://www.w3.org/2000/svg" xml:space="preserve" width="7.9374mm" height="7.9374mm" version="1.1" style="shape-rendering:geometricPrecision; text-rendering:geometricPrecision; image-rendering:optimizeQuality; fill-rule:evenodd; clip-rule:evenodd"
viewBox="0 0 793.74 793.74"
 xmlns:xlink="http://www.w3.org/1999/xlink">
 <defs>
  <style type="text/css">
    .fil0 {fill:#666666}
    .fil1 {fill:#999999}
  </style>
 </defs>
 <g id="Layer_x0020_1">
  <metadata id="CorelCorpID_0Corel-Layer"/>
  <g id="_2027239036208">
   <path class="fil0" d="M156.73 245.81l57.51 -2.38 0 -38.37c-18.63,0 -60.29,-3.15 -74.72,4.29 -21.16,10.92 -21.19,28.67 -21.15,58.03l0 316.46c-0.07,63.56 15.05,81.61 79.1,81.51 105.47,-0.17 211,-0.22 316.47,0.02 59.8,0.13 73.22,-21.27 91.43,-66.81l68.41 -171.44c6.65,-24.67 -8.22,-44.74 -28.7,-48.54 -20.11,-3.72 -273.02,-1.11 -315.82,-0.97 -45.07,0.15 -45.19,26.95 -70.47,90.14 -15.18,37.95 -30,74.98 -45.21,113.02 -8.02,20.07 -13.79,42.69 -35.43,44.61 -29.11,2.58 -21.45,-35.92 -21.45,-60.72 0,-106.28 0.03,-212.57 0.03,-318.85z"/>
   <path class="fil1" d="M501.93 187.06c11.86,5.98 19.91,17.5 29.39,26.97 9.47,9.48 21,17.53 27.56,29.4l-56.95 0 0 -56.37zm-268.48 279.31l0.41 10.01c6.74,-11.7 37.91,-88.07 37.91,-98.72l0 -210.99 165.44 0c19.21,0 26.39,7.18 26.39,26.39l0 88.69 88.69 0c34.09,0 26.39,26.28 26.39,76.72l38.64 0c-0.57,-141.52 5.92,-107.85 -76.42,-189.97 -20.75,-20.7 -29.47,-40.15 -74.92,-40.15l-231.35 0 -1.18 338.02z"/>
   <polygon class="fil1" points="310.17,358.47 540.3,358.47 540.28,320.15 310.15,320.15 "/>
   <polygon class="fil1" points="310.17,281.75 425.83,281.75 425.21,243.43 310.15,243.43 "/>
  </g>
 </g>
</svg>
