<?xml version="1.0" encoding="UTF-8"?>
<!DOCTYPE svg PUBLIC "-//W3C//DTD SVG 1.1//EN" "http://www.w3.org/Graphics/SVG/1.1/DTD/svg11.dtd">
<!-- Creator: CorelDRAW 2017 -->
<svg xmlns="http://www.w3.org/2000/svg" xml:space="preserve" width="7.9374mm" height="7.9374mm" version="1.1" style="shape-rendering:geometricPrecision; text-rendering:geometricPrecision; image-rendering:optimizeQuality; fill-rule:evenodd; clip-rule:evenodd"
viewBox="0 0 793.74 793.74"
 xmlns:xlink="http://www.w3.org/1999/xlink">
 <defs>
  <style type="text/css">
   <![CDATA[
    .fil1 {fill:#666666}
    .fil0 {fill:#999999}
   ]]>
  </style>
 </defs>
 <g id="Layer_x0020_1">
  <metadata id="CorelCorpID_0Corel-Layer"/>
  <g id="_2063677015808">
   <path class="fil0" d="M282.84 241.61c3.21,14.52 9.35,19.19 15.76,28.55 5.68,8.29 8.76,21.04 14.37,28.54 11.22,15.03 33.51,30.92 59.65,21.64 29.73,-10.55 33.62,-32.74 41.6,-46.55 18.78,-32.51 23.96,-23.63 13.23,-63.8 -3.2,-12 0.57,-24.42 -5.55,-39.14 -2.89,-6.93 -5.4,-8.71 -7.77,-13.64 -3.51,-7.33 -1.8,-7.41 -7.26,-14.21 -11.75,-14.63 -42.8,-20.79 -65.97,-16.34 -25.12,4.83 -41.81,18.03 -48.62,39.53 -5.04,15.91 -1.96,24.91 -3.85,39.54 -1.72,13.36 -10.87,11.91 -5.59,35.88z"/>
   <path class="fil0" d="M303.46 301.81c-31.67,8.55 -78.84,30.7 -87.46,54.89l22 113.47 9.7 -24.24c25.28,-63.19 25.4,-89.99 70.47,-90.14 22.72,-0.07 104.63,-0.84 179.5,-0.99 -13.57,-27.35 -60.97,-46.21 -87.5,-53.27 -10.23,13.11 -25.76,30.7 -54.27,30.08 -29.54,-0.64 -38.4,-18.83 -52.44,-29.8z"/>
   <path class="fil1" d="M156.73 248.93l107.57 -1.64c-0.57,-1.72 -1.09,-3.6 -1.55,-5.68 -5.01,-22.73 2.95,-22.6 5.26,-33.91 -48.25,-0.45 -118.47,-0.39 -128.49,4.78 -21.16,10.91 -21.19,28.67 -21.16,58.03l0 316.46c-0.06,63.55 15.06,81.61 79.11,81.5 105.47,-0.16 211,-0.22 316.47,0.02 59.8,0.14 73.22,-21.26 91.42,-66.8l68.42 -171.44c6.65,-24.67 -8.22,-44.75 -28.7,-48.54 -20.11,-3.72 -273.02,-1.11 -315.82,-0.97 -45.07,0.15 -45.19,26.94 -70.47,90.13 -15.18,37.95 -30,74.98 -45.21,113.03 -8.02,20.06 -13.79,42.69 -35.43,44.61 -29.11,2.57 -21.45,-35.92 -21.45,-60.72 0,-106.28 0.03,-212.57 0.03,-318.86z"/>
  </g>
 </g>
</svg>
