<?xml version="1.0" encoding="UTF-8"?>
<!DOCTYPE svg PUBLIC "-//W3C//DTD SVG 1.1//EN" "http://www.w3.org/Graphics/SVG/1.1/DTD/svg11.dtd">
<!-- Creator: CorelDRAW 2017 -->
<svg xmlns="http://www.w3.org/2000/svg" xml:space="preserve" width="7.9374mm" height="7.9374mm" version="1.1" style="shape-rendering:geometricPrecision; text-rendering:geometricPrecision; image-rendering:optimizeQuality; fill-rule:evenodd; clip-rule:evenodd"
viewBox="0 0 793.74 793.74"
 xmlns:xlink="http://www.w3.org/1999/xlink">
 <defs>
  <style type="text/css">
    .fil1 {fill:#666666}
    .fil0 {fill:#999999}
  </style>
 </defs>
 <g id="Layer_x0020_1">
  <metadata id="CorelCorpID_0Corel-Layer"/>
  <g id="_2063681576944">
   <g>
    <path class="fil0" d="M630 315.5c-0.95,16.6 -3.29,32.74 -7.14,48.11 -60.1,-2.1 -262.36,-0.04 -300.22,0.08 -19.3,0.06 -30.35,5.02 -38.67,15.62 -14.43,-39.07 -15.57,-84.43 2.6,-130.78 25.59,-65.3 83.26,-101.27 165.57,-109.04l2.87 174.81 174.99 1.2z"/>
    <path class="fil0" d="M472.39 123.76c87.39,0.74 174.5,92.46 173.18,173.21l-174.46 -1.37 1.28 -171.84z"/>
   </g>
   <path class="fil1" d="M156.73 250.4l107.57 -1.64c-0.57,-1.72 -1.09,-3.6 -1.55,-5.68 -5.01,-22.73 2.95,-22.6 5.26,-33.91 -48.25,-0.45 -118.47,-0.39 -128.49,4.78 -21.16,10.91 -21.19,28.67 -21.16,58.03l0 316.46c-0.06,63.55 15.06,81.61 79.11,81.5 105.47,-0.16 211,-0.22 316.47,0.02 59.8,0.14 73.22,-21.26 91.42,-66.8l68.42 -171.44c6.65,-24.67 -8.22,-44.75 -28.7,-48.54 -20.11,-3.72 -273.02,-1.11 -315.82,-0.97 -45.07,0.15 -45.19,26.94 -70.47,90.13 -15.18,37.95 -30,74.98 -45.21,113.03 -8.02,20.06 -13.79,42.69 -35.43,44.61 -29.11,2.57 -21.45,-35.92 -21.45,-60.72 0,-106.28 0.03,-212.57 0.03,-318.86z"/>
  </g>
 </g>
</svg>
