<?xml version="1.0" encoding="UTF-8"?>
<!DOCTYPE svg PUBLIC "-//W3C//DTD SVG 1.1//EN" "http://www.w3.org/Graphics/SVG/1.1/DTD/svg11.dtd">
<!-- Creator: CorelDRAW 2017 -->
<svg xmlns="http://www.w3.org/2000/svg" xml:space="preserve" width="10.5832mm" height="10.5832mm" version="1.1" style="shape-rendering:geometricPrecision; text-rendering:geometricPrecision; image-rendering:optimizeQuality; fill-rule:evenodd; clip-rule:evenodd"
viewBox="0 0 1058.32 1058.32"
 xmlns:xlink="http://www.w3.org/1999/xlink">
 <defs>
  <style type="text/css">
    .fil2 {fill:#666666}
    .fil3 {fill:#CCCCCC}
    .fil1 {fill:#E5E7E8}
    .fil0 {fill:#FAFAFA}
  </style>
 </defs>
 <g id="Layer_x0020_1">
  <metadata id="CorelCorpID_0Corel-Layer"/>
  <g id="_2063681599792">
   <path class="fil0" d="M83.09 421.18l168.81 52.08c-5.55,-150.47 136.87,-274.57 297.13,-229.63 107.56,30.17 174.4,133.9 165.25,243.03 -4.78,57.14 -22.81,72.78 -32.56,102.4 15.44,15.77 32.06,30.41 48.68,46.09l46.75 46.41c59.88,56.36 71.82,53.55 78.26,110.46 2.82,9.04 0.52,6.1 7.17,9.27 12.61,5.99 108.88,32.25 112.24,37.84 0.16,-109.08 1.67,-218.66 2.9,-327.77 1.21,-107.39 5.1,-221.93 -0.28,-328.47 -1.03,-43.42 -39.78,-81.63 -71.22,-93.78 -36.56,-14.12 -115.59,-8.42 -158.94,-8.42l-501.64 0c-65.41,0 -84.74,-4.51 -130.08,37.45 -36.26,33.56 -32.14,78.3 -32,135.54 0.11,47.56 4.85,123.39 -0.47,167.5z"/>
   <path class="fil1" d="M854.68 792.76c-11.83,12.23 -5.58,19.93 -26.4,34.12 -44.19,30.11 -79.68,-19.37 -108.65,-46.65 -27.31,-25.72 -98.28,-99.93 -118.36,-113.51 -38.61,17.95 -68.21,32 -120.64,31.53 -118.51,-1.07 -219.29,-86.66 -229.46,-224.25l-168.81 -52.08c-3.6,26.62 0.87,366.29 1.01,424.61 0.12,49.67 12.92,76.46 39.52,100.02 32.09,28.43 58.45,29.97 111.05,30.03l561.95 0.49c42.7,0.09 91.14,4.84 123.51,-15.26 75.62,-46.95 59.55,-117.03 59.81,-219.45 0.16,-61.23 5.59,-544.13 -2.5,-558.73 5.38,106.54 1.49,221.08 0.28,328.47 -1.23,109.11 -2.74,218.69 -2.9,327.77 -3.36,-5.59 -99.63,-31.85 -112.24,-37.84 -6.65,-3.17 -4.35,-0.23 -7.17,-9.27z"/>
   <path class="fil2" d="M343.52 472.7c-7.25,-79.13 53.66,-143.75 124.79,-150.42 80.22,-7.53 145.28,54.07 151.15,125.67 6.57,80.07 -54.84,144.45 -126.77,150.09 -79.98,6.28 -142.66,-54.23 -149.17,-125.34zm-93.66 -5.2c10.17,137.59 110.95,223.18 229.46,224.25 52.43,0.47 82.03,-13.58 120.64,-31.53 20.08,13.58 91.05,87.79 118.36,113.51 28.97,27.28 64.46,76.76 108.65,46.65 20.82,-14.19 14.57,-21.89 26.4,-34.12 -6.44,-56.91 -18.38,-54.1 -78.26,-110.46l-46.75 -46.41c-16.62,-15.68 -33.24,-30.32 -48.68,-46.09 9.75,-29.62 27.78,-45.26 32.56,-102.4 9.15,-109.13 -57.69,-212.86 -165.25,-243.03 -160.26,-44.94 -302.68,79.16 -297.13,229.63z"/>
   <path class="fil3" d="M81.05 421.68c5.32,-44.11 0.58,-119.94 0.47,-167.5 -0.14,-57.24 -4.26,-101.98 32,-135.54 45.34,-41.96 64.67,-37.45 130.08,-37.45l501.64 0c43.35,0 122.38,-5.7 158.94,8.42 31.44,12.15 70.19,50.36 71.22,93.78 8.09,14.6 2.66,497.5 2.5,558.73 -0.26,102.42 15.81,172.5 -59.81,219.45 -32.37,20.1 -80.81,15.35 -123.51,15.26l-561.95 -0.49c-52.6,-0.06 -78.96,-1.6 -111.05,-30.03 -26.6,-23.56 -39.4,-50.35 -39.52,-100.02 -0.14,-58.32 -4.61,-397.99 -1.01,-424.61zm-19.96 452.02c6.62,62.17 54.07,111.63 112.79,122 29.81,5.27 83.54,2.28 116.32,2.28 73.38,-0.01 544.2,3.16 583.96,-0.9 63.39,-6.47 111.36,-54.05 121.89,-113.98 5.22,-29.72 2.18,-83.61 2.18,-116.31 0,-65.68 2.52,-553.51 -1.11,-583.84 -7.45,-62.42 -54.81,-110.93 -115.02,-120.65 -30.98,-5 -81.74,-2.02 -114.93,-2.02 -72.31,0 -544.07,-3.06 -582.61,0.94 -64.68,6.73 -110.63,53.49 -121.92,113.49 -5.46,28.96 -2.38,83.04 -2.38,115.11 0,69.21 -2.84,549.36 0.83,583.88z"/>
   <path class="fil0" d="M344.48 473c6.51,71.11 69.19,131.62 149.17,125.34 71.93,-5.64 133.34,-70.02 126.77,-150.09 -5.87,-71.6 -70.93,-133.2 -151.15,-125.67 -71.13,6.67 -132.04,71.29 -124.79,150.42z"/>
  </g>
 </g>
</svg>
