<?xml version="1.0" encoding="UTF-8"?>
<!DOCTYPE svg PUBLIC "-//W3C//DTD SVG 1.1//EN" "http://www.w3.org/Graphics/SVG/1.1/DTD/svg11.dtd">
<!-- Creator: CorelDRAW 2017 -->
<svg xmlns="http://www.w3.org/2000/svg" xml:space="preserve" width="18.5208mm" height="18.5208mm" version="1.1" style="shape-rendering:geometricPrecision; text-rendering:geometricPrecision; image-rendering:optimizeQuality; fill-rule:evenodd; clip-rule:evenodd"
viewBox="0 0 1852.08 1852.08"
 xmlns:xlink="http://www.w3.org/1999/xlink">
 <defs>
  <style type="text/css">
    .fil2 {fill:#0B678B}
    .fil4 {fill:#167EA9}
    .fil1 {fill:#1899CA}
    .fil3 {fill:#F1F2F2}
    .fil0 {fill:#FFD014}
  </style>
 </defs>
 <g id="Layer_x0020_1">
  <metadata id="CorelCorpID_0Corel-Layer"/>
  <g id="_2219699282400">
   <circle class="fil0" cx="926.04" cy="926.04" r="767.29"/>
   <path class="fil1" d="M925.9 1575.62l0.21 -108.59 33.95 -7.09c-166.5,1.78 -290.45,-44.88 -381.93,-127.36 -73.44,-66.21 -164.13,-176.52 -179.41,-323.12l68.63 15.51c9.98,-24.14 83.99,-335.27 82.99,-348.76 -24.81,-6.47 -66.03,-14.11 -81.05,-27.75 77.73,-134.09 236.46,-254.32 459.81,-257.32l-2.56 -114.78c-357.73,-4.87 -650.21,293.18 -650.48,648.81 -0.26,354.92 292.09,657.05 649.84,650.45z"/>
   <path class="fil2" d="M929.1 391.14c110.24,1.72 206.75,34.83 282.22,81.88 53.27,33.22 161.31,129.54 179.26,193.43 -24.93,5.45 -64.44,13.09 -83.9,26.61 -5.4,14.96 67.18,320.37 81.78,349.07l62.18 -16.73c-12.86,120.29 -106.85,249.23 -166.63,298.85 -82.26,68.26 -177.61,126.93 -323.95,135.69l-33.95 7.09 -0.21 108.59c356.96,7.67 650.62,-296.03 650.12,-650.45 -0.5,-356.46 -292.59,-652.9 -649.48,-648.81l2.56 114.78z"/>
   <path class="fil3" d="M748.49 829.58c5.24,-29.16 54.39,-78.5 72.77,-103.93 29.75,-41.16 61.37,-42.12 115.61,-55.99 -4.07,-3.52 -3.34,-3.35 -10.35,-7.06l-22.91 -7.72c-12.37,-3.25 -21.43,-5.98 -33.98,-6.21 -25.5,-0.46 -44.68,11 -64.29,20.78 -38.75,19.34 -74.48,41.39 -107.23,63.86 -60.28,41.37 -45.55,5.72 -64.63,106.65 -7.07,37.37 -23.92,104.44 -24.3,139.3 49.76,7.59 47.24,-32.04 88.55,-3.23 7.27,34.92 -14.96,42.42 -27.38,68.11 33.04,-17.96 72.29,-98.06 122.7,-48.27 3.07,40.09 -50.25,78.91 -63.77,113.98 43.46,-26.5 77.35,-106.86 116.06,-89.97 61.18,26.71 -24.3,117.9 -34.3,142.05 21.04,-10.04 32.77,-43.74 59.18,-45.32 38.95,-2.32 28.06,38.15 25.97,69.05 27.14,10.77 44.09,19.78 71.55,3.44 -4.36,-20.26 -44.66,-35.53 -55.93,-51.58 42,7.51 131.09,101.69 160.55,24.11 -21.85,-19.76 -126.67,-83.97 -134.24,-97.91 20.85,-0.46 95.96,47.78 119.24,61.36 16.13,9.4 41.07,28.15 61.06,23.63 23.73,-5.37 39.01,-23.29 42.9,-48.51 -50.33,-26.46 -127.77,-68.75 -159.55,-104.68 72.58,7.3 169.34,134.04 217.34,62.48 62.56,-93.28 -122.58,-69.55 -242.79,-268.67l9.32 -10.11c13.35,-13.59 18.08,-17.74 19.11,-44.03 -15.61,21.77 -10.38,28.06 -40.82,37.53 -57.55,17.9 -44,-3 -54.73,6.83 -21.98,32.64 -24.28,51.28 -63.57,66.05 -41.97,15.78 -71.12,6.4 -97.14,-16.02z"/>
   <path class="fil4" d="M748.49 829.58c26.02,22.42 55.17,31.8 97.14,16.02 39.29,-14.77 41.59,-33.41 63.57,-66.05 10.73,-9.83 -2.82,11.07 54.73,-6.83 30.44,-9.47 25.21,-15.76 40.82,-37.53 -1.03,26.29 -5.76,30.44 -19.11,44.03l-9.32 10.11c120.21,199.12 305.35,175.39 242.79,268.67 -48,71.56 -144.76,-55.18 -217.34,-62.48 31.78,35.93 109.22,78.22 159.55,104.68 -3.89,25.22 -19.17,43.14 -42.9,48.51 -19.99,4.52 -44.93,-14.23 -61.06,-23.63 -23.28,-13.58 -98.39,-61.82 -119.24,-61.36 7.57,13.94 112.39,78.15 134.24,97.91 -29.46,77.58 -118.55,-16.6 -160.55,-24.11 11.27,16.05 51.57,31.32 55.93,51.58 -27.46,16.34 -44.41,7.33 -71.55,-3.44 2.09,-30.9 12.98,-71.37 -25.97,-69.05 -26.41,1.58 -38.14,35.28 -59.18,45.32 10,-24.15 95.48,-115.34 34.3,-142.05 -38.71,-16.89 -72.6,63.47 -116.06,89.97 13.52,-35.07 66.84,-73.89 63.77,-113.98 -50.41,-49.79 -89.66,30.31 -122.7,48.27 12.42,-25.69 34.65,-33.19 27.38,-68.11 -41.31,-28.81 -38.79,10.82 -88.55,3.23 0.38,-34.86 17.23,-101.93 24.3,-139.3 19.08,-100.93 4.35,-65.28 64.63,-106.65 32.75,-22.47 68.48,-44.52 107.23,-63.86 19.61,-9.78 38.79,-21.24 64.29,-20.78 12.55,0.23 21.61,2.96 33.98,6.21l22.91 7.72c7.01,3.71 6.28,3.54 10.35,7.06 -54.24,13.87 -85.86,14.83 -115.61,55.99 -18.38,25.43 -67.53,74.77 -72.77,103.93zm-112.6 -88.09l-49.37 254 27.73 4.88c-1.12,34.98 15.39,57.94 48.55,51.87 -0.99,25.81 0.61,35.28 13.75,51.27 16.15,19.66 22.43,18.56 47.68,13.73 -12.14,64.03 53.91,66.72 75.17,55.83 0.7,0.95 1.19,1.57 1.38,3.24 1.47,12.83 14.1,31.57 29.9,39.83 26.09,13.62 39.96,-1.41 54.25,-15.7 20.79,2.59 39.39,12.72 56.98,14.02 31.68,2.34 30.17,-17.51 53.08,-16.99 21.29,0.49 26.48,16.94 57.37,6.17 18.17,-6.34 30.35,-22.59 37.71,-36.84 90.64,-2.6 61.8,-37.28 97.41,-64.77 27.11,-20.93 64.46,-19.51 60.72,-106.42 27.15,-20.08 19.64,6.81 -2.18,-109.85 -8.15,-43.6 -16.15,-87.7 -24.52,-131.36 -56.72,-8.41 -146.4,-109.08 -210.34,-105.43 -50.83,2.91 -23.51,13.64 -82.38,-3.97 -90.09,-26.96 -128.24,-1.89 -221.81,61.96 -25.84,17.63 -32.19,29.63 -71.08,34.53z"/>
   <path class="fil4" d="M1235.5 743.41c2.8,53.5 21.69,127.93 32.6,180.95 25.07,121.8 5.1,104.92 91,85.42l-67.48 -277.94 -56.12 11.57z"/>
   <path class="fil4" d="M494.77 995.76l69.34 13.97c11.61,-51.1 55.18,-242.04 52.19,-278.93l-54.47 -14.04 -67.06 279z"/>
  </g>
 </g>
</svg>
